<svg width="24" height="24" viewBox="0 0 24 24" fill="none" xmlns="http://www.w3.org/2000/svg">
<path d="M12 0.375C5.57812 0.375 0.375 5.57812 0.375 12C0.375 18.4219 5.57812 23.625 12 23.625C18.4219 23.625 23.625 18.4219 23.625 12C23.625 5.57812 18.4219 0.375 12 0.375ZM4.5 12H3C3 7.03594 7.03594 3 12 3V4.5C7.86563 4.5 4.5 7.86563 4.5 12ZM12 16.5C9.51562 16.5 7.5 14.4844 7.5 12C7.5 9.51562 9.51562 7.5 12 7.5C14.4844 7.5 16.5 9.51562 16.5 12C16.5 14.4844 14.4844 16.5 12 16.5ZM12 10.5C11.1703 10.5 10.5 11.1703 10.5 12C10.5 12.8297 11.1703 13.5 12 13.5C12.8297 13.5 13.5 12.8297 13.5 12C13.5 11.1703 12.8297 10.5 12 10.5Z" fill="black"/>
</svg>
