<svg width="596" height="582" viewBox="0 0 596 582" fill="none" xmlns="http://www.w3.org/2000/svg">
<rect x="17.5" y="17.5" width="561" height="547" rx="273.5" fill="#934AB3"/>
<rect x="17.5" y="17.5" width="561" height="547" rx="273.5" stroke="#F3EAF5" stroke-width="35"/>
<mask id="path-2-outside-1_170_256" maskUnits="userSpaceOnUse" x="153" y="281.5" width="358" height="124" fill="black">
<rect fill="white" x="153" y="281.5" width="358" height="124"/>
<path d="M214.968 390.164C207.885 390.164 201.485 388.969 195.768 386.58C190.051 384.105 185.144 380.735 181.048 376.468C177.037 372.201 173.923 367.252 171.704 361.62C169.485 355.988 168.376 349.972 168.376 343.572C168.376 337.257 169.485 331.284 171.704 325.652C173.923 320.02 177.037 315.071 181.048 310.804C185.144 306.537 190.051 303.209 195.768 300.82C201.485 298.431 207.885 297.236 214.968 297.236C222.051 297.236 228.451 298.431 234.168 300.82C239.885 303.209 244.749 306.537 248.76 310.804C252.856 315.071 256.013 320.02 258.232 325.652C260.451 331.284 261.56 337.3 261.56 343.7C261.56 350.015 260.451 355.988 258.232 361.62C256.013 367.252 252.856 372.201 248.76 376.468C244.749 380.735 239.885 384.105 234.168 386.58C228.451 388.969 222.051 390.164 214.968 390.164ZM214.968 379.284C219.832 379.284 224.355 378.388 228.536 376.596C232.717 374.804 236.344 372.287 239.416 369.044C242.573 365.801 245.005 362.047 246.712 357.78C248.419 353.428 249.272 348.692 249.272 343.572C249.272 338.537 248.419 333.844 246.712 329.492C245.005 325.14 242.616 321.385 239.544 318.228C236.472 314.985 232.803 312.511 228.536 310.804C224.355 309.012 219.832 308.116 214.968 308.116C210.019 308.116 205.453 309.012 201.272 310.804C197.091 312.511 193.464 314.985 190.392 318.228C187.32 321.385 184.931 325.14 183.224 329.492C181.517 333.844 180.664 338.58 180.664 343.7C180.664 348.735 181.517 353.428 183.224 357.78C184.931 362.047 187.32 365.801 190.392 369.044C193.464 372.287 197.091 374.804 201.272 376.596C205.453 378.388 210.019 379.284 214.968 379.284ZM276.219 388.5V377.62H315.003C317.99 377.62 320.55 376.937 322.683 375.572C324.816 374.121 326.48 372.287 327.675 370.068C328.87 367.849 329.467 365.503 329.467 363.028C329.467 360.468 328.87 358.121 327.675 355.988C326.566 353.769 324.944 352.02 322.811 350.74C320.763 349.375 318.246 348.692 315.259 348.692H298.363C293.328 348.692 288.891 347.668 285.051 345.62C281.211 343.487 278.182 340.585 275.963 336.916C273.83 333.161 272.763 328.937 272.763 324.244C272.763 319.465 273.787 315.156 275.835 311.316C277.968 307.476 280.912 304.447 284.667 302.228C288.507 300.009 292.902 298.9 297.851 298.9H335.867V309.78H299.003C296.187 309.78 293.712 310.463 291.579 311.828C289.446 313.108 287.824 314.815 286.715 316.948C285.606 318.996 285.051 321.215 285.051 323.604C285.051 325.908 285.563 328.127 286.587 330.26C287.696 332.308 289.275 333.972 291.323 335.252C293.456 336.532 295.888 337.172 298.619 337.172H315.899C321.275 337.172 325.883 338.239 329.723 340.372C333.563 342.505 336.507 345.407 338.555 349.076C340.603 352.745 341.627 356.927 341.627 361.62C341.627 366.825 340.56 371.476 338.427 375.572C336.379 379.583 333.435 382.74 329.595 385.044C325.755 387.348 321.36 388.5 316.411 388.5H276.219ZM392.053 390.036C385.141 390.036 378.997 388.585 373.621 385.684C368.245 382.783 364.021 378.601 360.949 373.14C357.962 367.679 356.469 361.236 356.469 353.812V298.9H368.757V355.092C368.757 359.444 369.696 363.455 371.573 367.124C373.45 370.793 376.138 373.737 379.637 375.956C383.136 378.089 387.274 379.156 392.053 379.156C396.832 379.156 400.97 378.089 404.469 375.956C407.968 373.737 410.613 370.793 412.405 367.124C414.282 363.455 415.221 359.444 415.221 355.092V298.9H427.509V353.812C427.509 361.236 425.973 367.679 422.901 373.14C419.914 378.601 415.733 382.783 410.357 385.684C405.066 388.585 398.965 390.036 392.053 390.036ZM447.627 360.212V298.9H459.403V360.212H447.627ZM453.515 389.78C451.211 389.78 449.206 388.969 447.499 387.348C445.878 385.641 445.067 383.636 445.067 381.332C445.067 379.028 445.878 377.065 447.499 375.444C449.206 373.737 451.211 372.884 453.515 372.884C455.819 372.884 457.782 373.737 459.403 375.444C461.11 377.065 461.963 379.028 461.963 381.332C461.963 382.868 461.579 384.276 460.811 385.556C460.128 386.836 459.147 387.86 457.867 388.628C456.587 389.396 455.136 389.78 453.515 389.78ZM480.877 360.212V298.9H492.653V360.212H480.877ZM486.765 389.78C484.461 389.78 482.456 388.969 480.749 387.348C479.128 385.641 478.317 383.636 478.317 381.332C478.317 379.028 479.128 377.065 480.749 375.444C482.456 373.737 484.461 372.884 486.765 372.884C489.069 372.884 491.032 373.737 492.653 375.444C494.36 377.065 495.213 379.028 495.213 381.332C495.213 382.868 494.829 384.276 494.061 385.556C493.378 386.836 492.397 387.86 491.117 388.628C489.837 389.396 488.386 389.78 486.765 389.78Z"/>
</mask>
<path d="M214.968 390.164C207.885 390.164 201.485 388.969 195.768 386.58C190.051 384.105 185.144 380.735 181.048 376.468C177.037 372.201 173.923 367.252 171.704 361.62C169.485 355.988 168.376 349.972 168.376 343.572C168.376 337.257 169.485 331.284 171.704 325.652C173.923 320.02 177.037 315.071 181.048 310.804C185.144 306.537 190.051 303.209 195.768 300.82C201.485 298.431 207.885 297.236 214.968 297.236C222.051 297.236 228.451 298.431 234.168 300.82C239.885 303.209 244.749 306.537 248.76 310.804C252.856 315.071 256.013 320.02 258.232 325.652C260.451 331.284 261.56 337.3 261.56 343.7C261.56 350.015 260.451 355.988 258.232 361.62C256.013 367.252 252.856 372.201 248.76 376.468C244.749 380.735 239.885 384.105 234.168 386.58C228.451 388.969 222.051 390.164 214.968 390.164ZM214.968 379.284C219.832 379.284 224.355 378.388 228.536 376.596C232.717 374.804 236.344 372.287 239.416 369.044C242.573 365.801 245.005 362.047 246.712 357.78C248.419 353.428 249.272 348.692 249.272 343.572C249.272 338.537 248.419 333.844 246.712 329.492C245.005 325.14 242.616 321.385 239.544 318.228C236.472 314.985 232.803 312.511 228.536 310.804C224.355 309.012 219.832 308.116 214.968 308.116C210.019 308.116 205.453 309.012 201.272 310.804C197.091 312.511 193.464 314.985 190.392 318.228C187.32 321.385 184.931 325.14 183.224 329.492C181.517 333.844 180.664 338.58 180.664 343.7C180.664 348.735 181.517 353.428 183.224 357.78C184.931 362.047 187.32 365.801 190.392 369.044C193.464 372.287 197.091 374.804 201.272 376.596C205.453 378.388 210.019 379.284 214.968 379.284ZM276.219 388.5V377.62H315.003C317.99 377.62 320.55 376.937 322.683 375.572C324.816 374.121 326.48 372.287 327.675 370.068C328.87 367.849 329.467 365.503 329.467 363.028C329.467 360.468 328.87 358.121 327.675 355.988C326.566 353.769 324.944 352.02 322.811 350.74C320.763 349.375 318.246 348.692 315.259 348.692H298.363C293.328 348.692 288.891 347.668 285.051 345.62C281.211 343.487 278.182 340.585 275.963 336.916C273.83 333.161 272.763 328.937 272.763 324.244C272.763 319.465 273.787 315.156 275.835 311.316C277.968 307.476 280.912 304.447 284.667 302.228C288.507 300.009 292.902 298.9 297.851 298.9H335.867V309.78H299.003C296.187 309.78 293.712 310.463 291.579 311.828C289.446 313.108 287.824 314.815 286.715 316.948C285.606 318.996 285.051 321.215 285.051 323.604C285.051 325.908 285.563 328.127 286.587 330.26C287.696 332.308 289.275 333.972 291.323 335.252C293.456 336.532 295.888 337.172 298.619 337.172H315.899C321.275 337.172 325.883 338.239 329.723 340.372C333.563 342.505 336.507 345.407 338.555 349.076C340.603 352.745 341.627 356.927 341.627 361.62C341.627 366.825 340.56 371.476 338.427 375.572C336.379 379.583 333.435 382.74 329.595 385.044C325.755 387.348 321.36 388.5 316.411 388.5H276.219ZM392.053 390.036C385.141 390.036 378.997 388.585 373.621 385.684C368.245 382.783 364.021 378.601 360.949 373.14C357.962 367.679 356.469 361.236 356.469 353.812V298.9H368.757V355.092C368.757 359.444 369.696 363.455 371.573 367.124C373.45 370.793 376.138 373.737 379.637 375.956C383.136 378.089 387.274 379.156 392.053 379.156C396.832 379.156 400.97 378.089 404.469 375.956C407.968 373.737 410.613 370.793 412.405 367.124C414.282 363.455 415.221 359.444 415.221 355.092V298.9H427.509V353.812C427.509 361.236 425.973 367.679 422.901 373.14C419.914 378.601 415.733 382.783 410.357 385.684C405.066 388.585 398.965 390.036 392.053 390.036ZM447.627 360.212V298.9H459.403V360.212H447.627ZM453.515 389.78C451.211 389.78 449.206 388.969 447.499 387.348C445.878 385.641 445.067 383.636 445.067 381.332C445.067 379.028 445.878 377.065 447.499 375.444C449.206 373.737 451.211 372.884 453.515 372.884C455.819 372.884 457.782 373.737 459.403 375.444C461.11 377.065 461.963 379.028 461.963 381.332C461.963 382.868 461.579 384.276 460.811 385.556C460.128 386.836 459.147 387.86 457.867 388.628C456.587 389.396 455.136 389.78 453.515 389.78ZM480.877 360.212V298.9H492.653V360.212H480.877ZM486.765 389.78C484.461 389.78 482.456 388.969 480.749 387.348C479.128 385.641 478.317 383.636 478.317 381.332C478.317 379.028 479.128 377.065 480.749 375.444C482.456 373.737 484.461 372.884 486.765 372.884C489.069 372.884 491.032 373.737 492.653 375.444C494.36 377.065 495.213 379.028 495.213 381.332C495.213 382.868 494.829 384.276 494.061 385.556C493.378 386.836 492.397 387.86 491.117 388.628C489.837 389.396 488.386 389.78 486.765 389.78Z" fill="#934AB3"/>
<path d="M195.768 386.58L189.81 400.346L189.897 400.383L189.984 400.42L195.768 386.58ZM181.048 376.468L170.119 386.742L170.173 386.799L170.227 386.856L181.048 376.468ZM171.704 361.62L157.748 367.118H157.748L171.704 361.62ZM171.704 325.652L157.748 320.154L171.704 325.652ZM181.048 310.804L170.227 300.416L170.173 300.473L170.119 300.53L181.048 310.804ZM195.768 300.82L189.984 286.98L189.984 286.98L195.768 300.82ZM234.168 300.82L239.952 286.98L239.952 286.98L234.168 300.82ZM248.76 310.804L237.831 321.078L237.885 321.135L237.939 321.192L248.76 310.804ZM258.232 325.652L244.276 331.15L244.276 331.15L258.232 325.652ZM258.232 361.62L244.276 356.122L244.276 356.122L258.232 361.62ZM248.76 376.468L237.939 366.08L237.885 366.137L237.831 366.194L248.76 376.468ZM234.168 386.58L239.952 400.42L240.039 400.383L240.126 400.346L234.168 386.58ZM228.536 376.596L222.627 362.809H222.627L228.536 376.596ZM239.416 369.044L228.669 358.58L228.597 358.653L228.527 358.728L239.416 369.044ZM246.712 357.78L260.639 363.351L260.658 363.304L260.677 363.256L246.712 357.78ZM246.712 329.492L260.677 324.016L260.677 324.016L246.712 329.492ZM239.544 318.228L228.655 328.544L228.723 328.617L228.793 328.688L239.544 318.228ZM228.536 310.804L222.627 324.591L222.795 324.663L222.965 324.731L228.536 310.804ZM201.272 310.804L206.94 324.692L207.061 324.642L207.181 324.591L201.272 310.804ZM190.392 318.228L201.143 328.688L201.213 328.617L201.281 328.544L190.392 318.228ZM183.224 357.78L169.259 363.256L169.278 363.304L169.297 363.351L183.224 357.78ZM190.392 369.044L201.281 358.728H201.281L190.392 369.044ZM201.272 376.596L207.181 362.809H207.181L201.272 376.596ZM214.968 390.164V375.164C209.589 375.164 205.194 374.262 201.552 372.74L195.768 386.58L189.984 400.42C197.777 403.677 206.182 405.164 214.968 405.164V390.164ZM195.768 386.58L201.726 372.814C197.739 371.088 194.512 368.833 191.869 366.08L181.048 376.468L170.227 386.856C175.776 392.636 182.362 397.122 189.81 400.346L195.768 386.58ZM181.048 376.468L191.977 366.194C189.313 363.36 187.206 360.046 185.66 356.122L171.704 361.62L157.748 367.118C160.64 374.458 164.761 381.042 170.119 386.742L181.048 376.468ZM171.704 361.62L185.66 356.122C184.17 352.34 183.376 348.199 183.376 343.572H168.376H153.376C153.376 351.745 154.801 359.636 157.748 367.118L171.704 361.62ZM168.376 343.572H183.376C183.376 339.057 184.161 334.956 185.66 331.15L171.704 325.652L157.748 320.154C154.81 327.612 153.376 335.458 153.376 343.572H168.376ZM171.704 325.652L185.66 331.15C187.206 327.226 189.313 323.912 191.977 321.078L181.048 310.804L170.119 300.53C164.761 306.23 160.64 312.814 157.748 320.154L171.704 325.652ZM181.048 310.804L191.869 321.192C194.473 318.48 197.64 316.295 201.552 314.66L195.768 300.82L189.984 286.98C182.461 290.124 175.815 294.595 170.227 300.416L181.048 310.804ZM195.768 300.82L201.552 314.66C205.194 313.138 209.589 312.236 214.968 312.236V297.236V282.236C206.182 282.236 197.777 283.723 189.984 286.98L195.768 300.82ZM214.968 297.236V312.236C220.347 312.236 224.742 313.138 228.384 314.66L234.168 300.82L239.952 286.98C232.159 283.723 223.754 282.236 214.968 282.236V297.236ZM234.168 300.82L228.384 314.66C232.27 316.284 235.348 318.437 237.831 321.078L248.76 310.804L259.689 300.53C254.15 294.638 247.501 290.135 239.952 286.98L234.168 300.82ZM248.76 310.804L237.939 321.192C240.649 324.015 242.757 327.293 244.276 331.15L258.232 325.652L272.188 320.154C269.27 312.747 265.063 306.126 259.581 300.416L248.76 310.804ZM258.232 325.652L244.276 331.15C245.766 334.932 246.56 339.073 246.56 343.7H261.56H276.56C276.56 335.527 275.135 327.636 272.188 320.154L258.232 325.652ZM261.56 343.7H246.56C246.56 348.215 245.775 352.316 244.276 356.122L258.232 361.62L272.188 367.118C275.126 359.66 276.56 351.814 276.56 343.7H261.56ZM258.232 361.62L244.276 356.122C242.757 359.979 240.649 363.257 237.939 366.08L248.76 376.468L259.581 386.856C265.063 381.146 269.27 374.525 272.188 367.118L258.232 361.62ZM248.76 376.468L237.831 366.194C235.31 368.876 232.171 371.1 228.21 372.814L234.168 386.58L240.126 400.346C247.6 397.111 254.189 392.593 259.689 386.742L248.76 376.468ZM234.168 386.58L228.384 372.74C224.742 374.262 220.347 375.164 214.968 375.164V390.164V405.164C223.754 405.164 232.159 403.677 239.952 400.42L234.168 386.58ZM214.968 379.284V394.284C221.721 394.284 228.27 393.03 234.445 390.383L228.536 376.596L222.627 362.809C220.44 363.746 217.943 364.284 214.968 364.284V379.284ZM228.536 376.596L234.445 390.383C240.47 387.801 245.801 384.115 250.305 379.36L239.416 369.044L228.527 358.728C226.887 360.458 224.965 361.807 222.627 362.809L228.536 376.596ZM239.416 369.044L250.163 379.508C254.712 374.836 258.215 369.412 260.639 363.351L246.712 357.78L232.785 352.209C231.796 354.681 230.435 356.766 228.669 358.58L239.416 369.044ZM246.712 357.78L260.677 363.256C263.13 357 264.272 350.387 264.272 343.572H249.272H234.272C234.272 346.997 233.707 349.856 232.747 352.304L246.712 357.78ZM249.272 343.572H264.272C264.272 336.809 263.119 330.243 260.677 324.016L246.712 329.492L232.747 334.968C233.719 337.445 234.272 340.266 234.272 343.572H249.272ZM246.712 329.492L260.677 324.016C258.286 317.92 254.843 312.442 250.295 307.768L239.544 318.228L228.793 328.688C230.389 330.329 231.724 332.36 232.747 334.968L246.712 329.492ZM239.544 318.228L250.433 307.912C245.827 303.049 240.327 299.365 234.107 296.877L228.536 310.804L222.965 324.731C225.278 325.656 227.117 326.921 228.655 328.544L239.544 318.228ZM228.536 310.804L234.445 297.017C228.27 294.37 221.721 293.116 214.968 293.116V308.116V323.116C217.943 323.116 220.44 323.654 222.627 324.591L228.536 310.804ZM214.968 308.116V293.116C208.168 293.116 201.571 294.357 195.363 297.017L201.272 310.804L207.181 324.591C209.336 323.667 211.87 323.116 214.968 323.116V308.116ZM201.272 310.804L195.604 296.916C189.47 299.42 184.058 303.103 179.503 307.912L190.392 318.228L201.281 328.544C202.87 326.867 204.711 325.602 206.94 324.692L201.272 310.804ZM190.392 318.228L179.641 307.768C175.093 312.442 171.65 317.92 169.259 324.016L183.224 329.492L197.189 334.968C198.212 332.36 199.547 330.329 201.143 328.688L190.392 318.228ZM183.224 329.492L169.259 324.016C166.806 330.272 165.664 336.885 165.664 343.7H180.664H195.664C195.664 340.275 196.229 337.416 197.189 334.968L183.224 329.492ZM180.664 343.7H165.664C165.664 350.463 166.817 357.029 169.259 363.256L183.224 357.78L197.189 352.304C196.217 349.827 195.664 347.006 195.664 343.7H180.664ZM183.224 357.78L169.297 363.351C171.687 369.325 175.09 374.702 179.503 379.36L190.392 369.044L201.281 358.728C199.55 356.901 198.175 354.768 197.151 352.209L183.224 357.78ZM190.392 369.044L179.503 379.36C184.007 384.115 189.338 387.801 195.363 390.383L201.272 376.596L207.181 362.809C204.843 361.807 202.921 360.458 201.281 358.728L190.392 369.044ZM201.272 376.596L195.363 390.383C201.571 393.043 208.168 394.284 214.968 394.284V379.284V364.284C211.87 364.284 209.336 363.733 207.181 362.809L201.272 376.596ZM276.219 388.5H261.219V403.5H276.219V388.5ZM276.219 377.62V362.62H261.219V377.62H276.219ZM322.683 375.572L330.769 388.206L330.945 388.093L331.118 387.976L322.683 375.572ZM327.675 370.068L314.468 362.956V362.957L327.675 370.068ZM327.675 355.988L314.259 362.696L314.416 363.01L314.587 363.317L327.675 355.988ZM322.811 350.74L314.49 363.221L314.787 363.419L315.094 363.602L322.811 350.74ZM285.051 345.62L277.766 358.732L277.879 358.795L277.992 358.855L285.051 345.62ZM275.963 336.916L262.921 344.326L263.022 344.503L263.127 344.677L275.963 336.916ZM275.835 311.316L262.723 304.031L262.66 304.144L262.6 304.257L275.835 311.316ZM284.667 302.228L277.163 289.24L277.099 289.277L277.036 289.314L284.667 302.228ZM335.867 298.9H350.867V283.9H335.867V298.9ZM335.867 309.78V324.78H350.867V309.78H335.867ZM291.579 311.828L299.296 324.69L299.482 324.579L299.665 324.462L291.579 311.828ZM286.715 316.948L299.904 324.092L299.965 323.981L300.023 323.868L286.715 316.948ZM286.587 330.26L273.064 336.751L273.223 337.082L273.398 337.404L286.587 330.26ZM291.323 335.252L283.373 347.972L283.489 348.044L283.606 348.114L291.323 335.252ZM329.723 340.372L337.008 327.26V327.26L329.723 340.372ZM338.555 349.076L325.457 356.386L325.457 356.386L338.555 349.076ZM338.427 375.572L325.123 368.643L325.095 368.697L325.068 368.75L338.427 375.572ZM329.595 385.044L321.878 372.182L329.595 385.044ZM276.219 388.5H291.219V377.62H276.219H261.219V388.5H276.219ZM276.219 377.62V392.62H315.003V377.62V362.62H276.219V377.62ZM315.003 377.62V392.62C320.334 392.62 325.817 391.375 330.769 388.206L322.683 375.572L314.597 362.938C314.736 362.849 314.875 362.776 315.004 362.72C315.132 362.664 315.234 362.632 315.298 362.614C315.427 362.58 315.354 362.62 315.003 362.62V377.62ZM322.683 375.572L331.118 387.976C335.195 385.204 338.517 381.572 340.882 377.179L327.675 370.068L314.468 362.957C314.45 362.99 314.438 363.008 314.433 363.015C314.428 363.022 314.424 363.026 314.42 363.031C314.418 363.034 314.375 363.082 314.248 363.168L322.683 375.572ZM327.675 370.068L340.882 377.18C343.231 372.817 344.467 368.032 344.467 363.028H329.467H314.467C314.467 363.042 314.466 363.036 314.469 363.016C314.471 362.995 314.476 362.97 314.483 362.944C314.489 362.918 314.495 362.902 314.496 362.899C314.497 362.897 314.49 362.915 314.468 362.956L327.675 370.068ZM329.467 363.028H344.467C344.467 358.027 343.271 353.138 340.763 348.659L327.675 355.988L314.587 363.317C314.573 363.291 314.553 363.251 314.532 363.199C314.511 363.147 314.495 363.095 314.483 363.048C314.456 362.945 314.467 362.925 314.467 363.028H329.467ZM327.675 355.988L341.091 349.28C338.702 344.502 335.1 340.621 330.528 337.878L322.811 350.74L315.094 363.602C314.998 363.545 314.819 363.417 314.626 363.208C314.432 363 314.314 362.807 314.259 362.696L327.675 355.988ZM322.811 350.74L331.132 338.259C326.137 334.929 320.568 333.692 315.259 333.692V348.692V363.692C315.614 363.692 315.652 363.733 315.461 363.681C315.25 363.624 314.892 363.489 314.49 363.221L322.811 350.74ZM315.259 348.692V333.692H298.363V348.692V363.692H315.259V348.692ZM298.363 348.692V333.692C295.402 333.692 293.459 333.104 292.11 332.385L285.051 345.62L277.992 358.855C284.323 362.232 291.255 363.692 298.363 363.692V348.692ZM285.051 345.62L292.336 332.508C290.722 331.611 289.631 330.531 288.799 329.155L275.963 336.916L263.127 344.677C266.732 350.64 271.7 355.362 277.766 358.732L285.051 345.62ZM275.963 336.916L289.005 329.506C288.265 328.204 287.763 326.572 287.763 324.244H272.763H257.763C257.763 331.303 259.394 338.119 262.921 344.326L275.963 336.916ZM272.763 324.244H287.763C287.763 321.681 288.292 319.835 289.07 318.375L275.835 311.316L262.6 304.257C259.282 310.477 257.763 317.25 257.763 324.244H272.763ZM275.835 311.316L288.947 318.601C289.796 317.073 290.856 315.994 292.298 315.142L284.667 302.228L277.036 289.314C270.969 292.899 266.141 297.879 262.723 304.031L275.835 311.316ZM284.667 302.228L292.171 315.216C293.474 314.463 295.224 313.9 297.851 313.9V298.9V283.9C290.58 283.9 283.54 285.555 277.163 289.24L284.667 302.228ZM297.851 298.9V313.9H335.867V298.9V283.9H297.851V298.9ZM335.867 298.9H320.867V309.78H335.867H350.867V298.9H335.867ZM335.867 309.78V294.78H299.003V309.78V324.78H335.867V309.78ZM299.003 309.78V294.78C293.652 294.78 288.305 296.114 283.493 299.194L291.579 311.828L299.665 324.462C299.448 324.601 299.216 324.699 299.024 324.752C298.843 324.802 298.814 324.78 299.003 324.78V309.78ZM291.579 311.828L283.862 298.966C279.438 301.62 275.841 305.347 273.407 310.028L286.715 316.948L300.023 323.868C299.944 324.02 299.815 324.213 299.638 324.399C299.464 324.583 299.326 324.673 299.296 324.69L291.579 311.828ZM286.715 316.948L273.526 309.804C271.196 314.104 270.051 318.787 270.051 323.604H285.051H300.051C300.051 323.581 300.052 323.653 300.019 323.786C299.986 323.92 299.938 324.03 299.904 324.092L286.715 316.948ZM285.051 323.604H270.051C270.051 328.217 271.095 332.648 273.064 336.751L286.587 330.26L300.11 323.769C300.082 323.711 300.067 323.672 300.06 323.652C300.056 323.641 300.054 323.634 300.053 323.629C300.051 323.625 300.051 323.623 300.051 323.623C300.051 323.623 300.051 323.624 300.051 323.626C300.052 323.627 300.052 323.628 300.052 323.629C300.052 323.63 300.051 323.623 300.051 323.604H285.051ZM286.587 330.26L273.398 337.404C275.789 341.819 279.211 345.37 283.373 347.972L291.323 335.252L299.273 322.532C299.267 322.528 299.357 322.585 299.485 322.72C299.615 322.857 299.714 323.001 299.776 323.116L286.587 330.26ZM291.323 335.252L283.606 348.114C288.294 350.928 293.443 352.172 298.619 352.172V337.172V322.172C298.432 322.172 298.433 322.151 298.564 322.186C298.627 322.202 298.706 322.228 298.794 322.265C298.883 322.302 298.966 322.345 299.04 322.39L291.323 335.252ZM298.619 337.172V352.172H315.899V337.172V322.172H298.619V337.172ZM315.899 337.172V352.172C319.292 352.172 321.274 352.837 322.438 353.484L329.723 340.372L337.008 327.26C330.492 323.64 323.258 322.172 315.899 322.172V337.172ZM329.723 340.372L322.438 353.484C323.955 354.327 324.833 355.268 325.457 356.386L338.555 349.076L351.653 341.766C348.181 335.546 343.171 330.684 337.008 327.26L329.723 340.372ZM338.555 349.076L325.457 356.386C326.117 357.569 326.627 359.181 326.627 361.62H341.627H356.627C356.627 354.673 355.089 347.922 351.653 341.765L338.555 349.076ZM341.627 361.62H326.627C326.627 364.723 326.007 366.946 325.123 368.643L338.427 375.572L351.731 382.501C355.113 376.006 356.627 368.928 356.627 361.62H341.627ZM338.427 375.572L325.068 368.75C324.29 370.274 323.294 371.332 321.878 372.182L329.595 385.044L337.312 397.906C343.576 394.148 348.468 388.892 351.786 382.394L338.427 375.572ZM329.595 385.044L321.878 372.182C320.609 372.943 318.936 373.5 316.411 373.5V388.5V403.5C323.785 403.5 330.901 401.753 337.312 397.906L329.595 385.044ZM316.411 388.5V373.5H276.219V388.5V403.5H316.411V388.5ZM373.621 385.684L380.745 372.484L373.621 385.684ZM360.949 373.14L347.788 380.337L347.831 380.416L347.875 380.494L360.949 373.14ZM356.469 298.9V283.9H341.469V298.9H356.469ZM368.757 298.9H383.757V283.9H368.757V298.9ZM371.573 367.124L384.927 360.292L371.573 367.124ZM379.637 375.956L371.604 388.624L371.715 388.694L371.828 388.763L379.637 375.956ZM404.469 375.956L412.278 388.763L412.391 388.694L412.502 388.624L404.469 375.956ZM412.405 367.124L399.051 360.292L398.988 360.416L398.926 360.541L412.405 367.124ZM415.221 298.9V283.9H400.221V298.9H415.221ZM427.509 298.9H442.509V283.9H427.509V298.9ZM422.901 373.14L409.827 365.786L409.783 365.864L409.74 365.943L422.901 373.14ZM410.357 385.684L403.233 372.484L403.189 372.508L403.145 372.532L410.357 385.684ZM392.053 390.036V375.036C387.297 375.036 383.658 374.056 380.745 372.484L373.621 385.684L366.497 398.884C374.336 403.115 382.985 405.036 392.053 405.036V390.036ZM373.621 385.684L380.745 372.484C377.932 370.966 375.742 368.842 374.023 365.786L360.949 373.14L347.875 380.494C352.3 388.36 358.558 394.6 366.497 398.884L373.621 385.684ZM360.949 373.14L374.11 365.943C372.542 363.077 371.469 359.205 371.469 353.812H356.469H341.469C341.469 363.267 343.382 372.28 347.788 380.337L360.949 373.14ZM356.469 353.812H371.469V298.9H356.469H341.469V353.812H356.469ZM356.469 298.9V313.9H368.757V298.9V283.9H356.469V298.9ZM368.757 298.9H353.757V355.092H368.757H383.757V298.9H368.757ZM368.757 355.092H353.757C353.757 361.683 355.199 368.054 358.219 373.956L371.573 367.124L384.927 360.292C384.192 358.856 383.757 357.205 383.757 355.092H368.757ZM371.573 367.124L358.219 373.956C361.324 380.024 365.855 384.978 371.604 388.624L379.637 375.956L387.67 363.288C386.422 362.497 385.577 361.563 384.927 360.292L371.573 367.124ZM379.637 375.956L371.828 388.763C378.046 392.555 384.984 394.156 392.053 394.156V379.156V364.156C389.565 364.156 388.225 363.624 387.446 363.149L379.637 375.956ZM392.053 379.156V394.156C399.122 394.156 406.06 392.555 412.278 388.763L404.469 375.956L396.66 363.149C395.881 363.624 394.541 364.156 392.053 364.156V379.156ZM404.469 375.956L412.502 388.624C418.308 384.942 422.855 379.907 425.884 373.707L412.405 367.124L398.926 360.541C398.37 361.68 397.628 362.533 396.436 363.288L404.469 375.956ZM412.405 367.124L425.759 373.956C428.779 368.054 430.221 361.683 430.221 355.092H415.221H400.221C400.221 357.205 399.786 358.856 399.051 360.292L412.405 367.124ZM415.221 355.092H430.221V298.9H415.221H400.221V355.092H415.221ZM415.221 298.9V313.9H427.509V298.9V283.9H415.221V298.9ZM427.509 298.9H412.509V353.812H427.509H442.509V298.9H427.509ZM427.509 353.812H412.509C412.509 359.137 411.421 362.952 409.827 365.786L422.901 373.14L435.975 380.494C440.525 372.405 442.509 363.335 442.509 353.812H427.509ZM422.901 373.14L409.74 365.943C408.116 368.913 406.009 370.986 403.233 372.484L410.357 385.684L417.481 398.884C425.457 394.58 431.713 388.29 436.062 380.337L422.901 373.14ZM410.357 385.684L403.145 372.532C400.368 374.054 396.815 375.036 392.053 375.036V390.036V405.036C401.115 405.036 409.764 403.116 417.569 398.836L410.357 385.684ZM447.627 360.212H432.627V375.212H447.627V360.212ZM447.627 298.9V283.9H432.627V298.9H447.627ZM459.403 298.9H474.403V283.9H459.403V298.9ZM459.403 360.212V375.212H474.403V360.212H459.403ZM447.499 387.348L436.624 397.679L436.889 397.958L437.168 398.223L447.499 387.348ZM459.403 375.444L448.528 385.775L448.793 386.054L449.072 386.319L459.403 375.444ZM460.811 385.556L447.949 377.839L447.754 378.163L447.576 378.497L460.811 385.556ZM457.867 388.628L450.15 375.766L457.867 388.628ZM447.627 360.212H462.627V298.9H447.627H432.627V360.212H447.627ZM447.627 298.9V313.9H459.403V298.9V283.9H447.627V298.9ZM459.403 298.9H444.403V360.212H459.403H474.403V298.9H459.403ZM459.403 360.212V345.212H447.627V360.212V375.212H459.403V360.212ZM453.515 389.78V374.78C454.163 374.78 455.007 374.902 455.905 375.265C456.797 375.626 457.439 376.101 457.83 376.473L447.499 387.348L437.168 398.223C441.595 402.429 447.274 404.78 453.515 404.78V389.78ZM447.499 387.348L458.374 377.017C458.746 377.408 459.221 378.05 459.582 378.942C459.945 379.84 460.067 380.684 460.067 381.332H445.067H430.067C430.067 387.573 432.418 393.252 436.624 397.679L447.499 387.348ZM445.067 381.332H460.067C460.067 381.977 459.945 382.874 459.539 383.858C459.132 384.844 458.579 385.577 458.106 386.051L447.499 375.444L436.892 364.837C432.443 369.287 430.067 375.071 430.067 381.332H445.067ZM447.499 375.444L458.106 386.051C457.746 386.41 457.102 386.924 456.156 387.326C455.197 387.735 454.264 387.884 453.515 387.884V372.884V357.884C447.027 357.884 441.263 360.467 436.892 364.837L447.499 375.444ZM453.515 372.884V387.884C452.769 387.884 451.781 387.735 450.734 387.28C449.694 386.828 448.963 386.234 448.528 385.775L459.403 375.444L470.278 365.113C465.894 360.498 460.03 357.884 453.515 357.884V372.884ZM459.403 375.444L449.072 386.319C448.613 385.884 448.019 385.153 447.567 384.113C447.112 383.066 446.963 382.078 446.963 381.332H461.963H476.963C476.963 374.817 474.349 368.953 469.734 364.569L459.403 375.444ZM461.963 381.332H446.963C446.963 380.837 447.027 380.241 447.204 379.593C447.381 378.942 447.642 378.349 447.949 377.839L460.811 385.556L473.673 393.273C475.882 389.592 476.963 385.504 476.963 381.332H461.963ZM460.811 385.556L447.576 378.497C447.866 377.954 448.252 377.407 448.733 376.905C449.212 376.406 449.706 376.032 450.15 375.766L457.867 388.628L465.584 401.49C469.125 399.366 472.046 396.366 474.046 392.615L460.811 385.556ZM457.867 388.628L450.15 375.766C451.4 375.015 452.66 374.78 453.515 374.78V389.78V404.78C457.613 404.78 461.774 403.777 465.584 401.49L457.867 388.628ZM480.877 360.212H465.877V375.212H480.877V360.212ZM480.877 298.9V283.9H465.877V298.9H480.877ZM492.653 298.9H507.653V283.9H492.653V298.9ZM492.653 360.212V375.212H507.653V360.212H492.653ZM480.749 387.348L469.874 397.679L470.139 397.958L470.418 398.223L480.749 387.348ZM492.653 375.444L481.778 385.775L482.043 386.054L482.322 386.319L492.653 375.444ZM494.061 385.556L481.199 377.839L481.004 378.163L480.826 378.497L494.061 385.556ZM491.117 388.628L483.4 375.766L491.117 388.628ZM480.877 360.212H495.877V298.9H480.877H465.877V360.212H480.877ZM480.877 298.9V313.9H492.653V298.9V283.9H480.877V298.9ZM492.653 298.9H477.653V360.212H492.653H507.653V298.9H492.653ZM492.653 360.212V345.212H480.877V360.212V375.212H492.653V360.212ZM486.765 389.78V374.78C487.413 374.78 488.257 374.902 489.155 375.265C490.047 375.626 490.689 376.101 491.08 376.473L480.749 387.348L470.418 398.223C474.845 402.429 480.524 404.78 486.765 404.78V389.78ZM480.749 387.348L491.624 377.017C491.996 377.408 492.471 378.05 492.832 378.942C493.195 379.84 493.317 380.684 493.317 381.332H478.317H463.317C463.317 387.573 465.668 393.252 469.874 397.679L480.749 387.348ZM478.317 381.332H493.317C493.317 381.977 493.195 382.874 492.789 383.858C492.382 384.844 491.829 385.577 491.356 386.051L480.749 375.444L470.142 364.837C465.693 369.287 463.317 375.071 463.317 381.332H478.317ZM480.749 375.444L491.356 386.051C490.996 386.41 490.352 386.924 489.406 387.326C488.447 387.735 487.514 387.884 486.765 387.884V372.884V357.884C480.277 357.884 474.513 360.467 470.142 364.837L480.749 375.444ZM486.765 372.884V387.884C486.019 387.884 485.031 387.735 483.984 387.28C482.944 386.828 482.213 386.234 481.778 385.775L492.653 375.444L503.528 365.113C499.144 360.498 493.28 357.884 486.765 357.884V372.884ZM492.653 375.444L482.322 386.319C481.863 385.884 481.269 385.153 480.817 384.113C480.362 383.066 480.213 382.078 480.213 381.332H495.213H510.213C510.213 374.817 507.599 368.953 502.984 364.569L492.653 375.444ZM495.213 381.332H480.213C480.213 380.837 480.277 380.241 480.454 379.593C480.631 378.942 480.892 378.349 481.199 377.839L494.061 385.556L506.923 393.273C509.132 389.592 510.213 385.504 510.213 381.332H495.213ZM494.061 385.556L480.826 378.497C481.116 377.954 481.502 377.407 481.983 376.905C482.462 376.406 482.956 376.032 483.4 375.766L491.117 388.628L498.834 401.49C502.375 399.366 505.296 396.366 507.296 392.615L494.061 385.556ZM491.117 388.628L483.4 375.766C484.65 375.015 485.91 374.78 486.765 374.78V389.78V404.78C490.863 404.78 495.024 403.777 498.834 401.49L491.117 388.628Z" fill="#F2EAF5" mask="url(#path-2-outside-1_170_256)"/>
<circle cx="215" cy="343.5" r="45" fill="#F2EAF5"/>
<path d="M232.419 333.339C230.006 333.339 228.065 335.28 228.065 337.694C228.065 340.107 230.006 342.048 232.419 342.048C234.833 342.048 236.774 340.107 236.774 337.694C236.774 335.28 234.833 333.339 232.419 333.339ZM197.581 333.339C195.167 333.339 193.226 335.28 193.226 337.694C193.226 340.107 195.167 342.048 197.581 342.048C199.994 342.048 201.935 340.107 201.935 337.694C201.935 335.28 199.994 333.339 197.581 333.339ZM215 298.5C190.141 298.5 170 318.641 170 343.5C170 368.359 190.141 388.5 215 388.5C239.859 388.5 260 368.359 260 343.5C260 318.641 239.859 298.5 215 298.5ZM184.516 337.694C184.516 330.472 190.359 324.629 197.581 324.629C204.802 324.629 210.645 330.472 210.645 337.694C210.645 344.915 204.802 350.758 197.581 350.758C190.359 350.758 184.516 344.915 184.516 337.694ZM226.613 369.629H203.387C199.54 369.629 199.54 363.823 203.387 363.823H226.613C230.46 363.823 230.46 369.629 226.613 369.629ZM232.419 350.758C225.198 350.758 219.355 344.915 219.355 337.694C219.355 330.472 225.198 324.629 232.419 324.629C239.641 324.629 245.484 330.472 245.484 337.694C245.484 344.915 239.641 350.758 232.419 350.758Z" fill="#934AB3"/>
<mask id="path-6-outside-2_170_256" maskUnits="userSpaceOnUse" x="99.1" y="169.5" width="399" height="124" fill="black">
<rect fill="white" x="99.1" y="169.5" width="399" height="124"/>
<path d="M175.86 278.036C171.081 278.036 166.857 276.969 163.188 274.836C159.604 272.617 156.788 269.631 154.74 265.876C152.692 262.121 151.668 257.897 151.668 253.204V208.532C151.668 206.228 151.113 204.137 150.004 202.26C148.895 200.383 147.401 198.889 145.524 197.78C143.647 196.671 141.599 196.116 139.38 196.116C137.161 196.116 135.113 196.671 133.236 197.78C131.444 198.889 129.993 200.383 128.884 202.26C127.86 204.137 127.348 206.228 127.348 208.532V276.5H115.06V210.196C115.06 205.503 116.084 201.279 118.132 197.524C120.18 193.769 123.039 190.825 126.708 188.692C130.377 186.473 134.601 185.364 139.38 185.364C144.244 185.364 148.511 186.473 152.18 188.692C155.849 190.825 158.708 193.769 160.756 197.524C162.804 201.279 163.828 205.503 163.828 210.196V254.868C163.828 257.172 164.383 259.263 165.492 261.14C166.601 263.017 168.052 264.511 169.844 265.62C171.721 266.729 173.727 267.284 175.86 267.284C177.993 267.284 179.956 266.729 181.748 265.62C183.54 264.511 184.948 263.017 185.972 261.14C187.081 259.263 187.636 257.172 187.636 254.868V186.9H199.924V253.204C199.924 257.897 198.9 262.121 196.852 265.876C194.804 269.631 191.988 272.617 188.404 274.836C184.82 276.969 180.639 278.036 175.86 278.036ZM260.818 278.164C253.735 278.164 247.335 276.969 241.618 274.58C235.901 272.105 230.994 268.735 226.898 264.468C222.887 260.201 219.773 255.252 217.554 249.62C215.335 243.988 214.226 237.972 214.226 231.572C214.226 225.257 215.335 219.284 217.554 213.652C219.773 208.02 222.887 203.071 226.898 198.804C230.994 194.537 235.901 191.209 241.618 188.82C247.335 186.431 253.735 185.236 260.818 185.236C267.901 185.236 274.301 186.431 280.018 188.82C285.735 191.209 290.599 194.537 294.61 198.804C298.706 203.071 301.863 208.02 304.082 213.652C306.301 219.284 307.41 225.3 307.41 231.7C307.41 238.015 306.301 243.988 304.082 249.62C301.863 255.252 298.706 260.201 294.61 264.468C290.599 268.735 285.735 272.105 280.018 274.58C274.301 276.969 267.901 278.164 260.818 278.164ZM260.818 267.284C265.682 267.284 270.205 266.388 274.386 264.596C278.567 262.804 282.194 260.287 285.266 257.044C288.423 253.801 290.855 250.047 292.562 245.78C294.269 241.428 295.122 236.692 295.122 231.572C295.122 226.537 294.269 221.844 292.562 217.492C290.855 213.14 288.466 209.385 285.394 206.228C282.322 202.985 278.653 200.511 274.386 198.804C270.205 197.012 265.682 196.116 260.818 196.116C255.869 196.116 251.303 197.012 247.122 198.804C242.941 200.511 239.314 202.985 236.242 206.228C233.17 209.385 230.781 213.14 229.074 217.492C227.367 221.844 226.514 226.58 226.514 231.7C226.514 236.735 227.367 241.428 229.074 245.78C230.781 250.047 233.17 253.801 236.242 257.044C239.314 260.287 242.941 262.804 247.122 264.596C251.303 266.388 255.869 267.284 260.818 267.284ZM362.738 276.5C357.874 276.5 353.65 275.476 350.066 273.428C346.567 271.295 343.837 268.436 341.874 264.852C339.997 261.183 339.058 257.087 339.058 252.564V197.78H311.794V186.9H378.61V197.78H351.346V254.1C351.346 257.428 352.37 260.201 354.418 262.42C356.551 264.553 359.367 265.62 362.866 265.62H368.754V276.5H362.738ZM456.49 240.788C453.845 240.788 451.37 240.404 449.066 239.636C446.847 238.783 444.757 237.801 442.794 236.692C440.917 235.497 438.997 234.516 437.034 233.748C435.157 232.895 433.194 232.468 431.146 232.468C428.927 232.468 426.794 232.98 424.746 234.004C422.698 235.028 420.437 236.692 417.962 238.996L412.33 231.956C415.573 228.713 418.687 226.281 421.674 224.66C424.746 222.953 427.861 222.1 431.018 222.1C433.578 222.1 435.967 222.527 438.186 223.38C440.405 224.233 442.453 225.215 444.33 226.324C446.293 227.433 448.255 228.415 450.218 229.268C452.181 230.121 454.271 230.548 456.49 230.548C458.453 230.548 460.245 230.207 461.866 229.524C463.573 228.756 465.237 227.775 466.858 226.58C468.479 225.3 470.058 223.935 471.594 222.484L477.354 229.524C473.343 233.364 469.717 236.223 466.474 238.1C463.231 239.892 459.903 240.788 456.49 240.788Z"/>
</mask>
<path d="M175.86 278.036C171.081 278.036 166.857 276.969 163.188 274.836C159.604 272.617 156.788 269.631 154.74 265.876C152.692 262.121 151.668 257.897 151.668 253.204V208.532C151.668 206.228 151.113 204.137 150.004 202.26C148.895 200.383 147.401 198.889 145.524 197.78C143.647 196.671 141.599 196.116 139.38 196.116C137.161 196.116 135.113 196.671 133.236 197.78C131.444 198.889 129.993 200.383 128.884 202.26C127.86 204.137 127.348 206.228 127.348 208.532V276.5H115.06V210.196C115.06 205.503 116.084 201.279 118.132 197.524C120.18 193.769 123.039 190.825 126.708 188.692C130.377 186.473 134.601 185.364 139.38 185.364C144.244 185.364 148.511 186.473 152.18 188.692C155.849 190.825 158.708 193.769 160.756 197.524C162.804 201.279 163.828 205.503 163.828 210.196V254.868C163.828 257.172 164.383 259.263 165.492 261.14C166.601 263.017 168.052 264.511 169.844 265.62C171.721 266.729 173.727 267.284 175.86 267.284C177.993 267.284 179.956 266.729 181.748 265.62C183.54 264.511 184.948 263.017 185.972 261.14C187.081 259.263 187.636 257.172 187.636 254.868V186.9H199.924V253.204C199.924 257.897 198.9 262.121 196.852 265.876C194.804 269.631 191.988 272.617 188.404 274.836C184.82 276.969 180.639 278.036 175.86 278.036ZM260.818 278.164C253.735 278.164 247.335 276.969 241.618 274.58C235.901 272.105 230.994 268.735 226.898 264.468C222.887 260.201 219.773 255.252 217.554 249.62C215.335 243.988 214.226 237.972 214.226 231.572C214.226 225.257 215.335 219.284 217.554 213.652C219.773 208.02 222.887 203.071 226.898 198.804C230.994 194.537 235.901 191.209 241.618 188.82C247.335 186.431 253.735 185.236 260.818 185.236C267.901 185.236 274.301 186.431 280.018 188.82C285.735 191.209 290.599 194.537 294.61 198.804C298.706 203.071 301.863 208.02 304.082 213.652C306.301 219.284 307.41 225.3 307.41 231.7C307.41 238.015 306.301 243.988 304.082 249.62C301.863 255.252 298.706 260.201 294.61 264.468C290.599 268.735 285.735 272.105 280.018 274.58C274.301 276.969 267.901 278.164 260.818 278.164ZM260.818 267.284C265.682 267.284 270.205 266.388 274.386 264.596C278.567 262.804 282.194 260.287 285.266 257.044C288.423 253.801 290.855 250.047 292.562 245.78C294.269 241.428 295.122 236.692 295.122 231.572C295.122 226.537 294.269 221.844 292.562 217.492C290.855 213.14 288.466 209.385 285.394 206.228C282.322 202.985 278.653 200.511 274.386 198.804C270.205 197.012 265.682 196.116 260.818 196.116C255.869 196.116 251.303 197.012 247.122 198.804C242.941 200.511 239.314 202.985 236.242 206.228C233.17 209.385 230.781 213.14 229.074 217.492C227.367 221.844 226.514 226.58 226.514 231.7C226.514 236.735 227.367 241.428 229.074 245.78C230.781 250.047 233.17 253.801 236.242 257.044C239.314 260.287 242.941 262.804 247.122 264.596C251.303 266.388 255.869 267.284 260.818 267.284ZM362.738 276.5C357.874 276.5 353.65 275.476 350.066 273.428C346.567 271.295 343.837 268.436 341.874 264.852C339.997 261.183 339.058 257.087 339.058 252.564V197.78H311.794V186.9H378.61V197.78H351.346V254.1C351.346 257.428 352.37 260.201 354.418 262.42C356.551 264.553 359.367 265.62 362.866 265.62H368.754V276.5H362.738ZM456.49 240.788C453.845 240.788 451.37 240.404 449.066 239.636C446.847 238.783 444.757 237.801 442.794 236.692C440.917 235.497 438.997 234.516 437.034 233.748C435.157 232.895 433.194 232.468 431.146 232.468C428.927 232.468 426.794 232.98 424.746 234.004C422.698 235.028 420.437 236.692 417.962 238.996L412.33 231.956C415.573 228.713 418.687 226.281 421.674 224.66C424.746 222.953 427.861 222.1 431.018 222.1C433.578 222.1 435.967 222.527 438.186 223.38C440.405 224.233 442.453 225.215 444.33 226.324C446.293 227.433 448.255 228.415 450.218 229.268C452.181 230.121 454.271 230.548 456.49 230.548C458.453 230.548 460.245 230.207 461.866 229.524C463.573 228.756 465.237 227.775 466.858 226.58C468.479 225.3 470.058 223.935 471.594 222.484L477.354 229.524C473.343 233.364 469.717 236.223 466.474 238.1C463.231 239.892 459.903 240.788 456.49 240.788Z" fill="#934AB3"/>
<path d="M163.188 274.836L155.293 287.59L155.469 287.699L155.649 287.804L163.188 274.836ZM154.74 265.876L167.908 258.693L167.908 258.693L154.74 265.876ZM150.004 202.26L162.918 194.629L162.918 194.629L150.004 202.26ZM145.524 197.78L137.893 210.694L137.893 210.694L145.524 197.78ZM133.236 197.78L125.605 184.866L125.472 184.945L125.341 185.026L133.236 197.78ZM128.884 202.26L115.97 194.629L115.839 194.851L115.716 195.077L128.884 202.26ZM127.348 276.5V291.5H142.348V276.5H127.348ZM115.06 276.5H100.06V291.5H115.06V276.5ZM118.132 197.524L104.964 190.341L104.964 190.341L118.132 197.524ZM126.708 188.692L134.247 201.66L134.359 201.595L134.469 201.528L126.708 188.692ZM152.18 188.692L144.419 201.528L144.529 201.595L144.641 201.66L152.18 188.692ZM160.756 197.524L173.924 190.341V190.341L160.756 197.524ZM165.492 261.14L152.578 268.771L152.578 268.771L165.492 261.14ZM169.844 265.62L161.949 278.374L162.08 278.455L162.213 278.534L169.844 265.62ZM181.748 265.62L173.853 252.866L173.853 252.866L181.748 265.62ZM185.972 261.14L173.058 253.509L172.927 253.731L172.804 253.957L185.972 261.14ZM187.636 186.9V171.9H172.636V186.9H187.636ZM199.924 186.9H214.924V171.9H199.924V186.9ZM196.852 265.876L183.684 258.693L196.852 265.876ZM188.404 274.836L196.076 287.725L196.188 287.659L196.299 287.59L188.404 274.836ZM175.86 278.036V263.036C173.389 263.036 171.83 262.509 170.727 261.868L163.188 274.836L155.649 287.804C161.885 291.429 168.773 293.036 175.86 293.036V278.036ZM163.188 274.836L171.083 262.082C169.744 261.253 168.73 260.2 167.908 258.693L154.74 265.876L141.572 273.059C144.846 279.061 149.464 283.982 155.293 287.59L163.188 274.836ZM154.74 265.876L167.908 258.693C167.177 257.351 166.668 255.638 166.668 253.204H151.668H136.668C136.668 260.157 138.207 266.891 141.572 273.059L154.74 265.876ZM151.668 253.204H166.668V208.532H151.668H136.668V253.204H151.668ZM151.668 208.532H166.668C166.668 203.702 165.471 198.95 162.918 194.629L150.004 202.26L137.09 209.891C136.951 209.656 136.831 209.376 136.754 209.083C136.677 208.794 136.668 208.594 136.668 208.532H151.668ZM150.004 202.26L162.918 194.629C160.521 190.573 157.211 187.263 153.155 184.866L145.524 197.78L137.893 210.694C137.782 210.628 137.618 210.512 137.445 210.339C137.272 210.166 137.156 210.002 137.09 209.891L150.004 202.26ZM145.524 197.78L153.155 184.866C148.924 182.366 144.234 181.116 139.38 181.116V196.116V211.116C139.226 211.116 138.97 211.095 138.659 211.01C138.346 210.926 138.083 210.806 137.893 210.694L145.524 197.78ZM139.38 196.116V181.116C134.526 181.116 129.836 182.366 125.605 184.866L133.236 197.78L140.867 210.694C140.677 210.806 140.414 210.926 140.101 211.01C139.79 211.095 139.534 211.116 139.38 211.116V196.116ZM133.236 197.78L125.341 185.026C121.413 187.457 118.269 190.738 115.97 194.629L128.884 202.26L141.798 209.891C141.777 209.926 141.703 210.039 141.563 210.184C141.421 210.33 141.268 210.45 141.131 210.534L133.236 197.78ZM128.884 202.26L115.716 195.077C113.398 199.327 112.348 203.918 112.348 208.532H127.348H142.348C142.348 208.498 142.351 208.603 142.301 208.804C142.251 209.011 142.166 209.235 142.052 209.443L128.884 202.26ZM127.348 208.532H112.348V276.5H127.348H142.348V208.532H127.348ZM127.348 276.5V261.5H115.06V276.5V291.5H127.348V276.5ZM115.06 276.5H130.06V210.196H115.06H100.06V276.5H115.06ZM115.06 210.196H130.06C130.06 207.762 130.569 206.049 131.3 204.707L118.132 197.524L104.964 190.341C101.599 196.509 100.06 203.243 100.06 210.196H115.06ZM118.132 197.524L131.3 204.707C132.046 203.339 132.967 202.404 134.247 201.66L126.708 188.692L119.169 175.724C113.111 179.247 108.314 184.2 104.964 190.341L118.132 197.524ZM126.708 188.692L134.469 201.528C135.536 200.883 137.016 200.364 139.38 200.364V185.364V170.364C132.187 170.364 125.218 172.064 118.947 175.856L126.708 188.692ZM139.38 185.364V200.364C141.884 200.364 143.393 200.908 144.419 201.528L152.18 188.692L159.941 175.856C153.629 172.039 146.604 170.364 139.38 170.364V185.364ZM152.18 188.692L144.641 201.66C145.921 202.404 146.842 203.339 147.588 204.707L160.756 197.524L173.924 190.341C170.574 184.2 165.777 179.247 159.719 175.724L152.18 188.692ZM160.756 197.524L147.588 204.707C148.319 206.049 148.828 207.762 148.828 210.196H163.828H178.828C178.828 203.243 177.289 196.509 173.924 190.341L160.756 197.524ZM163.828 210.196H148.828V254.868H163.828H178.828V210.196H163.828ZM163.828 254.868H148.828C148.828 259.698 150.025 264.45 152.578 268.771L165.492 261.14L178.406 253.509C178.544 253.744 178.664 254.024 178.742 254.317C178.819 254.606 178.828 254.806 178.828 254.868H163.828ZM165.492 261.14L152.578 268.771C154.877 272.662 158.021 275.943 161.949 278.374L169.844 265.62L177.739 252.866C177.876 252.95 178.029 253.07 178.171 253.216C178.311 253.361 178.385 253.474 178.406 253.509L165.492 261.14ZM169.844 265.62L162.213 278.534C166.348 280.977 170.98 282.284 175.86 282.284V267.284V252.284C176.11 252.284 176.422 252.319 176.755 252.411C177.085 252.502 177.331 252.621 177.475 252.706L169.844 265.62ZM175.86 267.284V282.284C180.747 282.284 185.449 280.97 189.643 278.374L181.748 265.62L173.853 252.866C174.104 252.71 174.446 252.548 174.853 252.433C175.258 252.319 175.611 252.284 175.86 252.284V267.284ZM181.748 265.62L189.643 278.374C193.68 275.875 196.89 272.448 199.14 268.323L185.972 261.14L172.804 253.957C172.881 253.815 173.02 253.605 173.234 253.378C173.449 253.15 173.67 252.979 173.853 252.866L181.748 265.62ZM185.972 261.14L198.886 268.771C201.439 264.45 202.636 259.698 202.636 254.868H187.636H172.636C172.636 254.806 172.645 254.606 172.722 254.317C172.799 254.024 172.919 253.744 173.058 253.509L185.972 261.14ZM187.636 254.868H202.636V186.9H187.636H172.636V254.868H187.636ZM187.636 186.9V201.9H199.924V186.9V171.9H187.636V186.9ZM199.924 186.9H184.924V253.204H199.924H214.924V186.9H199.924ZM199.924 253.204H184.924C184.924 255.638 184.415 257.351 183.684 258.693L196.852 265.876L210.02 273.059C213.385 266.891 214.924 260.157 214.924 253.204H199.924ZM196.852 265.876L183.684 258.693C182.862 260.2 181.848 261.253 180.509 262.082L188.404 274.836L196.299 287.59C202.128 283.982 206.746 279.061 210.02 273.059L196.852 265.876ZM188.404 274.836L180.732 261.947C179.79 262.507 178.338 263.036 175.86 263.036V278.036V293.036C182.939 293.036 189.85 291.432 196.076 287.725L188.404 274.836ZM241.618 274.58L235.66 288.346L235.747 288.383L235.834 288.42L241.618 274.58ZM226.898 264.468L215.969 274.742L216.023 274.799L216.077 274.856L226.898 264.468ZM217.554 249.62L203.598 255.118L217.554 249.62ZM217.554 213.652L203.598 208.154L217.554 213.652ZM226.898 198.804L216.077 188.416L216.023 188.473L215.969 188.53L226.898 198.804ZM241.618 188.82L235.834 174.98V174.98L241.618 188.82ZM280.018 188.82L285.802 174.98L285.802 174.98L280.018 188.82ZM294.61 198.804L283.681 209.078L283.735 209.135L283.789 209.192L294.61 198.804ZM304.082 213.652L290.126 219.15V219.15L304.082 213.652ZM304.082 249.62L290.126 244.122V244.122L304.082 249.62ZM294.61 264.468L283.789 254.08L283.735 254.137L283.681 254.194L294.61 264.468ZM280.018 274.58L285.802 288.42L285.889 288.383L285.976 288.346L280.018 274.58ZM274.386 264.596L268.477 250.809L274.386 264.596ZM285.266 257.044L274.519 246.58L274.447 246.653L274.377 246.728L285.266 257.044ZM292.562 245.78L306.489 251.351L306.508 251.304L306.527 251.256L292.562 245.78ZM292.562 217.492L306.527 212.016V212.016L292.562 217.492ZM285.394 206.228L274.505 216.544L274.573 216.617L274.643 216.688L285.394 206.228ZM274.386 198.804L268.477 212.591L268.645 212.663L268.815 212.731L274.386 198.804ZM247.122 198.804L252.79 212.692L252.911 212.642L253.031 212.591L247.122 198.804ZM236.242 206.228L246.993 216.688L247.063 216.617L247.131 216.544L236.242 206.228ZM229.074 245.78L215.109 251.256L215.128 251.304L215.147 251.351L229.074 245.78ZM236.242 257.044L247.131 246.728L236.242 257.044ZM247.122 264.596L253.031 250.809L247.122 264.596ZM260.818 278.164V263.164C255.439 263.164 251.044 262.262 247.402 260.74L241.618 274.58L235.834 288.42C243.627 291.677 252.032 293.164 260.818 293.164V278.164ZM241.618 274.58L247.576 260.814C243.589 259.088 240.362 256.833 237.719 254.08L226.898 264.468L216.077 274.856C221.626 280.636 228.212 285.122 235.66 288.346L241.618 274.58ZM226.898 264.468L237.827 254.194C235.163 251.36 233.056 248.046 231.51 244.122L217.554 249.62L203.598 255.118C206.49 262.458 210.611 269.042 215.969 274.742L226.898 264.468ZM217.554 249.62L231.51 244.122C230.02 240.34 229.226 236.199 229.226 231.572H214.226H199.226C199.226 239.745 200.651 247.636 203.598 255.118L217.554 249.62ZM214.226 231.572H229.226C229.226 227.057 230.011 222.956 231.51 219.15L217.554 213.652L203.598 208.154C200.66 215.612 199.226 223.458 199.226 231.572H214.226ZM217.554 213.652L231.51 219.15C233.056 215.226 235.163 211.912 237.827 209.078L226.898 198.804L215.969 188.53C210.611 194.23 206.49 200.814 203.598 208.154L217.554 213.652ZM226.898 198.804L237.719 209.192C240.323 206.48 243.49 204.295 247.402 202.66L241.618 188.82L235.834 174.98C228.311 178.124 221.665 182.595 216.077 188.416L226.898 198.804ZM241.618 188.82L247.402 202.66C251.044 201.138 255.439 200.236 260.818 200.236V185.236V170.236C252.032 170.236 243.627 171.723 235.834 174.98L241.618 188.82ZM260.818 185.236V200.236C266.197 200.236 270.592 201.138 274.234 202.66L280.018 188.82L285.802 174.98C278.009 171.723 269.604 170.236 260.818 170.236V185.236ZM280.018 188.82L274.234 202.66C278.12 204.284 281.198 206.437 283.681 209.078L294.61 198.804L305.539 188.53C300 182.638 293.351 178.135 285.802 174.98L280.018 188.82ZM294.61 198.804L283.789 209.192C286.499 212.015 288.606 215.293 290.126 219.15L304.082 213.652L318.038 208.154C315.12 200.747 310.913 194.126 305.431 188.416L294.61 198.804ZM304.082 213.652L290.126 219.15C291.616 222.932 292.41 227.073 292.41 231.7H307.41H322.41C322.41 223.527 320.985 215.636 318.038 208.154L304.082 213.652ZM307.41 231.7H292.41C292.41 236.215 291.625 240.316 290.126 244.122L304.082 249.62L318.038 255.118C320.976 247.66 322.41 239.814 322.41 231.7H307.41ZM304.082 249.62L290.126 244.122C288.606 247.979 286.499 251.257 283.789 254.08L294.61 264.468L305.431 274.856C310.913 269.146 315.12 262.525 318.038 255.118L304.082 249.62ZM294.61 264.468L283.681 254.194C281.16 256.876 278.021 259.1 274.06 260.814L280.018 274.58L285.976 288.346C293.45 285.111 300.039 280.593 305.539 274.742L294.61 264.468ZM280.018 274.58L274.234 260.74C270.592 262.262 266.197 263.164 260.818 263.164V278.164V293.164C269.604 293.164 278.009 291.677 285.802 288.42L280.018 274.58ZM260.818 267.284V282.284C267.571 282.284 274.12 281.03 280.295 278.383L274.386 264.596L268.477 250.809C266.29 251.746 263.793 252.284 260.818 252.284V267.284ZM274.386 264.596L280.295 278.383C286.32 275.801 291.651 272.115 296.155 267.36L285.266 257.044L274.377 246.728C272.737 248.458 270.815 249.807 268.477 250.809L274.386 264.596ZM285.266 257.044L296.013 267.508C300.562 262.836 304.064 257.412 306.489 251.351L292.562 245.78L278.635 240.209C277.646 242.681 276.285 244.766 274.519 246.58L285.266 257.044ZM292.562 245.78L306.527 251.256C308.98 245 310.122 238.387 310.122 231.572H295.122H280.122C280.122 234.997 279.557 237.856 278.597 240.304L292.562 245.78ZM295.122 231.572H310.122C310.122 224.809 308.969 218.243 306.527 212.016L292.562 217.492L278.597 222.968C279.569 225.445 280.122 228.266 280.122 231.572H295.122ZM292.562 217.492L306.527 212.016C304.136 205.92 300.693 200.442 296.145 195.768L285.394 206.228L274.643 216.688C276.239 218.329 277.574 220.36 278.597 222.968L292.562 217.492ZM285.394 206.228L296.283 195.912C291.677 191.049 286.177 187.365 279.957 184.877L274.386 198.804L268.815 212.731C271.128 213.656 272.967 214.921 274.505 216.544L285.394 206.228ZM274.386 198.804L280.295 185.017C274.12 182.37 267.571 181.116 260.818 181.116V196.116V211.116C263.793 211.116 266.29 211.654 268.477 212.591L274.386 198.804ZM260.818 196.116V181.116C254.018 181.116 247.421 182.357 241.213 185.017L247.122 198.804L253.031 212.591C255.186 211.667 257.72 211.116 260.818 211.116V196.116ZM247.122 198.804L241.454 184.916C235.32 187.42 229.908 191.103 225.353 195.912L236.242 206.228L247.131 216.544C248.72 214.867 250.561 213.602 252.79 212.692L247.122 198.804ZM236.242 206.228L225.491 195.768C220.943 200.442 217.5 205.92 215.109 212.016L229.074 217.492L243.039 222.968C244.062 220.36 245.397 218.329 246.993 216.688L236.242 206.228ZM229.074 217.492L215.109 212.016C212.656 218.272 211.514 224.885 211.514 231.7H226.514H241.514C241.514 228.275 242.079 225.416 243.039 222.968L229.074 217.492ZM226.514 231.7H211.514C211.514 238.463 212.667 245.029 215.109 251.256L229.074 245.78L243.039 240.304C242.067 237.827 241.514 235.006 241.514 231.7H226.514ZM229.074 245.78L215.147 251.351C217.537 257.325 220.94 262.702 225.353 267.36L236.242 257.044L247.131 246.728C245.4 244.901 244.025 242.768 243.001 240.209L229.074 245.78ZM236.242 257.044L225.353 267.36C229.857 272.115 235.188 275.801 241.213 278.383L247.122 264.596L253.031 250.809C250.693 249.807 248.771 248.458 247.131 246.728L236.242 257.044ZM247.122 264.596L241.213 278.383C247.421 281.043 254.018 282.284 260.818 282.284V267.284V252.284C257.72 252.284 255.186 251.733 253.031 250.809L247.122 264.596ZM350.066 273.428L342.257 286.235L342.439 286.346L342.624 286.452L350.066 273.428ZM341.874 264.852L328.52 271.684L328.616 271.872L328.718 272.057L341.874 264.852ZM339.058 197.78H354.058V182.78H339.058V197.78ZM311.794 197.78H296.794V212.78H311.794V197.78ZM311.794 186.9V171.9H296.794V186.9H311.794ZM378.61 186.9H393.61V171.9H378.61V186.9ZM378.61 197.78V212.78H393.61V197.78H378.61ZM351.346 197.78V182.78H336.346V197.78H351.346ZM354.418 262.42L343.396 272.594L343.599 272.815L343.811 273.027L354.418 262.42ZM368.754 265.62H383.754V250.62H368.754V265.62ZM368.754 276.5V291.5H383.754V276.5H368.754ZM362.738 276.5V261.5C360.016 261.5 358.451 260.943 357.508 260.404L350.066 273.428L342.624 286.452C348.849 290.009 355.732 291.5 362.738 291.5V276.5ZM350.066 273.428L357.875 260.621C356.612 259.851 355.728 258.921 355.03 257.647L341.874 264.852L328.718 272.057C331.945 277.951 336.523 282.739 342.257 286.235L350.066 273.428ZM341.874 264.852L355.228 258.02C354.535 256.665 354.058 254.946 354.058 252.564H339.058H324.058C324.058 259.227 325.459 265.7 328.52 271.684L341.874 264.852ZM339.058 252.564H354.058V197.78H339.058H324.058V252.564H339.058ZM339.058 197.78V182.78H311.794V197.78V212.78H339.058V197.78ZM311.794 197.78H326.794V186.9H311.794H296.794V197.78H311.794ZM311.794 186.9V201.9H378.61V186.9V171.9H311.794V186.9ZM378.61 186.9H363.61V197.78H378.61H393.61V186.9H378.61ZM378.61 197.78V182.78H351.346V197.78V212.78H378.61V197.78ZM351.346 197.78H336.346V254.1H351.346H366.346V197.78H351.346ZM351.346 254.1H336.346C336.346 260.781 338.52 267.312 343.396 272.594L354.418 262.42L365.44 252.246C365.72 252.549 366.002 252.984 366.185 253.48C366.36 253.953 366.346 254.212 366.346 254.1H351.346ZM354.418 262.42L343.811 273.027C349.209 278.424 356.076 280.62 362.866 280.62V265.62V250.62C362.643 250.62 362.903 250.588 363.443 250.793C364.026 251.013 364.592 251.381 365.025 251.813L354.418 262.42ZM362.866 265.62V280.62H368.754V265.62V250.62H362.866V265.62ZM368.754 265.62H353.754V276.5H368.754H383.754V265.62H368.754ZM368.754 276.5V261.5H362.738V276.5V291.5H368.754V276.5ZM449.066 239.636L443.681 253.636L443.999 253.758L444.323 253.866L449.066 239.636ZM442.794 236.692L434.741 249.347L435.072 249.557L435.413 249.75L442.794 236.692ZM437.034 233.748L430.827 247.403L431.193 247.57L431.568 247.717L437.034 233.748ZM424.746 234.004L418.038 220.588L424.746 234.004ZM417.962 238.996L406.249 248.366L416.349 260.992L428.183 249.974L417.962 238.996ZM412.33 231.956L401.723 221.349L392.23 230.843L400.617 241.326L412.33 231.956ZM421.674 224.66L428.83 237.843L428.895 237.808L428.959 237.772L421.674 224.66ZM438.186 223.38L443.571 209.38L438.186 223.38ZM444.33 226.324L436.699 239.238L436.823 239.311L436.949 239.382L444.33 226.324ZM450.218 229.268L456.199 215.512H456.199L450.218 229.268ZM461.866 229.524L467.687 243.349L467.855 243.278L468.021 243.203L461.866 229.524ZM466.858 226.58L475.756 238.656L475.957 238.508L476.153 238.353L466.858 226.58ZM471.594 222.484L483.203 212.985L473.004 200.52L461.295 211.579L471.594 222.484ZM477.354 229.524L487.728 240.359L497.749 230.764L488.963 220.025L477.354 229.524ZM466.474 238.1L473.729 251.229L473.86 251.156L473.99 251.081L466.474 238.1ZM456.49 240.788V225.788C455.313 225.788 454.454 225.62 453.809 225.406L449.066 239.636L444.323 253.866C448.286 255.188 452.376 255.788 456.49 255.788V240.788ZM449.066 239.636L454.451 225.636C452.883 225.033 451.462 224.361 450.175 223.634L442.794 236.692L435.413 249.75C438.051 251.241 440.812 252.533 443.681 253.636L449.066 239.636ZM442.794 236.692L450.847 224.037C448.197 222.351 445.414 220.92 442.5 219.779L437.034 233.748L431.568 247.717C432.579 248.112 433.636 248.644 434.741 249.347L442.794 236.692ZM437.034 233.748L443.241 220.092C439.428 218.359 435.35 217.468 431.146 217.468V232.468V247.468C431.12 247.468 431.054 247.464 430.968 247.446C430.928 247.437 430.894 247.427 430.867 247.418C430.84 247.409 430.826 247.403 430.827 247.403L437.034 233.748ZM431.146 232.468V217.468C426.523 217.468 422.1 218.557 418.038 220.588L424.746 234.004L431.454 247.42C431.502 247.397 431.474 247.416 431.383 247.438C431.29 247.46 431.202 247.468 431.146 247.468V232.468ZM424.746 234.004L418.038 220.588C414.256 222.479 410.815 225.156 407.741 228.018L417.962 238.996L428.183 249.974C430.059 248.228 431.14 247.577 431.454 247.42L424.746 234.004ZM417.962 238.996L429.675 229.626L424.043 222.586L412.33 231.956L400.617 241.326L406.249 248.366L417.962 238.996ZM412.33 231.956L422.937 242.563C425.49 240.009 427.466 238.583 428.83 237.843L421.674 224.66L414.518 211.477C409.908 213.979 405.655 217.418 401.723 221.349L412.33 231.956ZM421.674 224.66L428.959 237.772C430.059 237.161 430.689 237.1 431.018 237.1V222.1V207.1C425.033 207.1 419.433 208.746 414.389 211.548L421.674 224.66ZM431.018 222.1V237.1C431.879 237.1 432.429 237.237 432.801 237.38L438.186 223.38L443.571 209.38C439.505 207.816 435.277 207.1 431.018 207.1V222.1ZM438.186 223.38L432.801 237.38C434.311 237.961 435.6 238.588 436.699 239.238L444.33 226.324L451.961 213.41C449.305 211.841 446.498 210.506 443.571 209.38L438.186 223.38ZM444.33 226.324L436.949 239.382C439.342 240.735 441.771 241.952 444.237 243.024L450.218 229.268L456.199 215.512C454.739 214.877 453.243 214.132 451.711 213.266L444.33 226.324ZM450.218 229.268L444.237 243.024C448.156 244.728 452.291 245.548 456.49 245.548V230.548V215.548C456.348 215.548 456.277 215.535 456.257 215.531C456.239 215.527 456.225 215.523 456.199 215.512L450.218 229.268ZM456.49 230.548V245.548C460.22 245.548 464.021 244.892 467.687 243.349L461.866 229.524L456.045 215.699C456.24 215.618 456.4 215.576 456.499 215.557C456.595 215.539 456.6 215.548 456.49 215.548V230.548ZM461.866 229.524L468.021 243.203C470.767 241.967 473.344 240.433 475.756 238.656L466.858 226.58L457.96 214.504C457.129 215.116 456.379 215.545 455.711 215.845L461.866 229.524ZM466.858 226.58L476.153 238.353C478.129 236.793 480.043 235.137 481.893 233.389L471.594 222.484L461.295 211.579C460.073 212.732 458.829 213.807 457.563 214.807L466.858 226.58ZM471.594 222.484L459.985 231.983L465.745 239.023L477.354 229.524L488.963 220.025L483.203 212.985L471.594 222.484ZM477.354 229.524L466.98 218.689C463.462 222.058 460.8 224.053 458.958 225.119L466.474 238.1L473.99 251.081C478.634 248.393 483.225 244.67 487.728 240.359L477.354 229.524ZM466.474 238.1L459.219 224.971C458.002 225.644 457.152 225.788 456.49 225.788V240.788V255.788C462.655 255.788 468.46 254.14 473.729 251.229L466.474 238.1Z" fill="#F3EAF5" mask="url(#path-6-outside-2_170_256)"/>
</svg>
