<svg width="565" height="406" viewBox="0 0 565 406" fill="none" xmlns="http://www.w3.org/2000/svg">
<g filter="url(#filter0_d_179_167)">
<path d="M155.155 355.216L151.348 345.023L187.682 331.456C190.48 330.411 192.639 328.876 194.16 326.85C195.651 324.745 196.568 322.444 196.911 319.948C197.254 317.451 196.993 315.044 196.127 312.726C195.232 310.327 193.851 308.338 191.986 306.757C190.171 305.067 188.04 303.995 185.593 303.543C183.197 302.98 180.6 303.221 177.802 304.266L161.974 310.176C157.257 311.938 152.742 312.531 148.428 311.955C144.084 311.3 140.232 309.642 136.869 306.98C133.557 304.209 131.081 300.625 129.439 296.229C127.767 291.752 127.219 287.357 127.794 283.043C128.449 278.699 130.148 274.831 132.889 271.439C135.71 268.017 139.439 265.441 144.076 263.71L179.69 250.411L183.496 260.603L148.961 273.499C146.323 274.484 144.243 275.989 142.722 278.015C141.172 279.96 140.25 282.126 139.957 284.513C139.634 286.819 139.891 289.092 140.726 291.33C141.532 293.489 142.788 295.388 144.494 297.028C146.249 298.559 148.31 299.566 150.677 300.048C153.123 300.501 155.625 300.25 158.184 299.295L174.372 293.25C179.408 291.369 184.098 290.756 188.442 291.412C192.785 292.067 196.558 293.755 199.76 296.476C202.963 299.197 205.385 302.756 207.027 307.153C208.848 312.029 209.475 316.759 208.909 321.343C208.394 325.816 206.74 329.804 203.949 333.306C201.158 336.808 197.444 339.424 192.807 341.156L155.155 355.216ZM270.847 313.79C264.212 316.268 257.798 317.388 251.606 317.149C245.385 316.831 239.609 315.39 234.279 312.826C229.029 310.232 224.38 306.685 220.331 302.185C216.283 297.685 213.139 292.437 210.9 286.441C208.691 280.526 207.641 274.542 207.749 268.489C207.857 262.437 209.044 256.711 211.308 251.311C213.653 245.881 217.085 241.047 221.606 236.808C226.126 232.57 231.704 229.212 238.339 226.734C244.974 224.256 251.387 223.137 257.579 223.375C263.771 223.613 269.492 225.029 274.742 227.623C280.072 230.188 284.761 233.72 288.81 238.22C292.858 242.72 296.002 247.968 298.241 253.963C300.45 259.879 301.5 265.863 301.392 271.915C301.284 277.968 300.057 283.709 297.713 289.139C295.448 294.539 292.07 299.398 287.58 303.716C283.06 307.955 277.482 311.313 270.847 313.79ZM267.041 303.598C271.598 301.896 275.521 299.475 278.811 296.333C282.102 293.192 284.618 289.565 286.362 285.452C288.185 281.31 289.15 276.942 289.257 272.348C289.333 267.674 288.476 262.938 286.685 258.142C284.923 253.425 282.482 249.327 279.361 245.847C276.24 242.367 272.688 239.686 268.705 237.802C264.693 235.839 260.39 234.805 255.796 234.698C251.252 234.482 246.701 235.225 242.145 236.927C237.508 238.658 233.545 241.094 230.254 244.236C226.934 247.297 224.402 250.884 222.659 254.997C220.886 259.029 219.961 263.383 219.884 268.057C219.808 272.731 220.665 277.466 222.456 282.262C224.218 286.979 226.659 291.077 229.78 294.557C232.871 297.957 236.423 300.639 240.436 302.602C244.448 304.565 248.726 305.655 253.27 305.871C257.814 306.087 262.404 305.329 267.041 303.598ZM384.782 271.109C380.305 272.78 375.975 273.259 371.791 272.544C367.657 271.719 363.974 269.906 360.742 267.105C357.51 264.304 355.073 260.705 353.432 256.309L337.804 214.459C336.998 212.301 335.747 210.536 334.051 209.166C332.355 207.795 330.434 206.918 328.287 206.536C326.14 206.153 324.028 206.35 321.949 207.126C319.871 207.902 318.146 209.138 316.776 210.834C315.485 212.501 314.648 214.407 314.266 216.554C313.963 218.671 314.215 220.808 315.021 222.967L338.798 286.64L327.286 290.939L304.091 228.824C302.45 224.427 301.931 220.112 302.536 215.878C303.142 211.644 304.79 207.886 307.481 204.604C310.142 201.242 313.711 198.725 318.188 197.054C322.745 195.352 327.13 194.899 331.343 195.694C335.527 196.409 339.235 198.166 342.467 200.967C345.699 203.768 348.136 207.367 349.778 211.764L365.405 253.614C366.211 255.772 367.462 257.537 369.158 258.907C370.854 260.278 372.736 261.169 374.803 261.582C376.949 261.964 379.022 261.782 381.02 261.036C383.019 260.29 384.664 259.084 385.954 257.417C387.245 255.751 388.042 253.86 388.344 251.743C388.727 249.596 388.515 247.443 387.709 245.285L363.932 181.612L375.444 177.313L398.639 239.428C400.28 243.824 400.799 248.14 400.194 252.374C399.588 256.607 397.995 260.39 395.414 263.723C392.803 266.975 389.259 269.437 384.782 271.109ZM496.109 257.957C492.112 259.45 488.256 259.979 484.541 259.544C480.936 259.159 477.687 257.777 474.794 255.395C471.901 253.014 469.664 249.705 468.081 245.469C467.693 244.429 467.33 243.335 466.992 242.186C466.684 241.117 466.401 239.993 466.143 238.814C459.737 241.662 453.378 243.171 447.066 243.342C440.753 243.513 434.817 242.496 429.257 240.291C423.667 238.006 418.713 234.618 414.395 230.128C410.047 225.558 406.664 220.035 404.246 213.56C402.037 207.644 400.976 201.755 401.064 195.892C401.122 189.95 402.299 184.318 404.593 178.998C406.888 173.678 410.27 168.954 414.74 164.825C419.261 160.587 424.758 157.259 431.234 154.841C437.709 152.423 443.988 151.308 450.07 151.496C456.152 151.684 461.803 153.035 467.023 155.549C472.213 157.984 476.748 161.346 480.627 165.636C484.586 169.896 487.655 174.944 489.834 180.78L507.88 229.104C509.492 233.421 510.095 237.477 509.69 241.272C509.315 245.146 507.977 248.515 505.676 251.378C503.455 254.212 500.266 256.405 496.109 257.957ZM491.539 247.913C494.177 246.928 495.977 245.163 496.939 242.617C497.932 240.152 497.771 237.16 496.457 233.643L485.801 205.104C483.059 208.496 480.977 211.824 479.554 215.087C478.102 218.271 477.159 221.356 476.725 224.342C476.342 227.218 476.333 229.999 476.699 232.687C477.034 235.294 477.65 237.796 478.546 240.195C479.411 242.513 480.543 244.322 481.939 245.623C483.445 246.973 485.042 247.834 486.729 248.206C488.417 248.578 490.02 248.48 491.539 247.913ZM459.354 230.146C460.633 229.668 461.817 229.18 462.906 228.682C463.966 228.105 465.075 227.417 466.235 226.62C466.339 223.484 466.868 220.144 467.822 216.599C468.856 213.025 470.424 209.297 472.527 205.415C474.68 201.423 477.626 197.362 481.368 193.232L478.323 185.078C476.621 180.522 474.255 176.623 471.223 173.383C468.241 170.033 464.789 167.496 460.866 165.773C456.994 163.94 452.84 162.94 448.406 162.775C443.942 162.529 439.472 163.242 434.995 164.913C430.438 166.615 426.555 169.021 423.344 172.133C420.184 175.135 417.717 178.652 415.944 182.684C414.251 186.687 413.351 190.986 413.244 195.58C413.188 200.064 414.026 204.624 415.757 209.261C417.489 213.898 419.86 217.931 422.872 221.361C425.933 224.681 429.415 227.297 433.318 229.211C437.3 231.094 441.483 232.173 445.867 232.449C450.302 232.615 454.797 231.847 459.354 230.146Z" fill="#6C2A88"/>
<path d="M519.769 191.326L494.972 128.58L506.124 124.416L528.523 188.057L519.769 191.326ZM533.534 215.016C531.455 215.792 529.498 215.794 527.661 215.023C525.875 214.141 524.593 212.661 523.817 210.583C523.011 208.424 523.009 206.467 523.81 204.71C524.662 202.844 526.127 201.522 528.205 200.746C530.364 199.94 532.336 199.978 534.123 200.859C535.96 201.631 537.281 203.096 538.087 205.254C538.863 207.333 538.825 209.305 537.974 211.172C537.172 212.928 535.692 214.21 533.534 215.016Z" fill="white"/>
</g>
<g filter="url(#filter1_d_179_167)">
<path d="M61.1484 262.771C57.9707 263.958 54.7598 264.781 51.5157 265.241C48.2717 265.701 45.2266 265.779 42.3806 265.475L41.5131 259.036C44.4791 259.295 47.4042 259.261 50.2885 258.936C53.2105 258.528 56.0504 257.809 58.8084 256.779C62.6456 255.346 65.3184 253.631 66.8268 251.633C68.3352 249.635 68.6304 247.407 67.7125 244.949C67.0856 243.27 66.1322 242.089 64.8522 241.406C63.5723 240.722 61.9398 240.375 59.9548 240.365C57.9698 240.355 55.5163 240.554 52.5944 240.962C48.6612 241.405 45.1929 241.539 42.1894 241.363C39.2458 241.164 36.7599 240.453 34.7316 239.229C32.741 237.923 31.2642 235.981 30.3015 233.402C28.7791 229.325 29.1738 225.626 31.4855 222.303C33.8348 218.898 37.8574 216.132 43.5532 214.005C46.551 212.886 49.6308 212.077 52.7925 211.58C55.9543 211.082 58.887 210.978 61.5907 211.266L62.5145 217.582C59.8932 217.331 57.1627 217.429 54.3231 217.874C51.4612 218.26 48.7111 218.945 46.0731 219.93C42.4157 221.296 39.8704 222.895 38.4372 224.728C37.0039 226.562 36.7015 228.587 37.5299 230.806C38.0672 232.245 38.9347 233.287 40.1323 233.933C41.3898 234.556 42.9811 234.884 44.9062 234.917C46.8912 234.927 49.2135 234.743 51.8732 234.365C54.8775 233.995 57.6156 233.826 60.0874 233.86C62.5969 233.811 64.8137 234.076 66.738 234.655C68.6623 235.235 70.3052 236.158 71.6668 237.426C73.0659 238.612 74.1572 240.254 74.9408 242.352C76.5304 246.609 76.113 250.522 73.6885 254.092C71.2641 257.662 67.0841 260.555 61.1484 262.771ZM111.175 244.09C103.681 246.889 97.1112 246.951 91.4669 244.277C85.8227 241.602 81.5453 236.368 78.6348 228.573C75.8139 221.019 75.546 214.355 77.8311 208.583C80.1763 202.789 84.8263 198.593 91.7812 195.996C98.4364 193.511 104.294 193.646 109.354 196.402C114.391 199.099 118.32 204.224 121.141 211.778C121.365 212.378 121.6 213.008 121.847 213.667C122.093 214.327 122.276 214.907 122.395 215.409L83.5431 229.917L81.3938 224.161L115.029 211.601L114.385 213.994C112.214 208.178 109.421 204.268 106.008 202.263C102.596 200.258 98.5807 200.118 93.9641 201.842C89.0477 203.678 85.8526 206.647 84.3787 210.75C82.8824 214.793 83.1978 219.662 85.3247 225.358L85.9963 227.157C88.1009 232.792 91.0994 236.523 94.992 238.349C98.8846 240.174 103.559 240.069 109.015 238.031C111.893 236.957 114.546 235.556 116.976 233.829C119.383 232.042 121.397 230.026 123.018 227.781L126.663 232.876C124.944 235.226 122.742 237.38 120.058 239.339C117.434 241.275 114.473 242.859 111.175 244.09ZM142.188 231.485L117.672 165.833L124.867 163.146L149.382 228.798L142.188 231.485ZM185.388 216.378C177.894 219.177 171.325 219.239 165.68 216.564C160.036 213.89 155.759 208.655 152.848 200.861C150.027 193.306 149.759 186.643 152.045 180.871C154.39 175.076 159.04 170.881 165.995 168.284C172.65 165.798 178.507 165.934 183.567 168.69C188.605 171.386 192.534 176.511 195.355 184.066C195.579 184.665 195.814 185.295 196.06 185.955C196.306 186.614 196.489 187.195 196.608 187.697L157.756 202.205L155.607 196.449L189.243 183.889L188.599 186.281C186.427 180.466 183.635 176.555 180.222 174.551C176.809 172.546 172.794 172.405 168.178 174.129C163.261 175.965 160.066 178.934 158.592 183.037C157.096 187.08 157.411 191.95 159.538 197.645L160.21 199.444C162.314 205.08 165.313 208.811 169.205 210.636C173.098 212.462 177.772 212.356 183.228 210.319C186.106 209.244 188.76 207.843 191.189 206.116C193.596 204.329 195.61 202.313 197.231 200.069L200.876 205.163C199.157 207.513 196.956 209.667 194.271 211.626C191.647 213.563 188.686 215.147 185.388 216.378ZM237.141 197.053C232.045 198.956 227.31 199.631 222.936 199.078C218.54 198.465 214.681 196.729 211.359 193.871C208.075 190.93 205.493 186.941 203.612 181.905C201.731 176.868 201.079 172.193 201.654 167.88C202.267 163.483 204.044 159.643 206.985 156.359C209.903 153.015 213.91 150.391 219.007 148.488C221.525 147.548 224.024 146.922 226.504 146.611C228.961 146.24 231.482 146.221 234.066 146.554L234.866 152.813C232.447 152.555 230.158 152.556 228.001 152.815C225.843 153.074 223.745 153.584 221.706 154.346C216.13 156.428 212.388 159.67 210.479 164.072C208.548 168.414 208.657 173.462 210.807 179.218C212.934 184.914 216.16 188.799 220.487 190.872C224.814 192.946 229.765 192.941 235.341 190.859C237.38 190.098 239.299 189.108 241.098 187.889C242.897 186.671 244.626 185.172 246.284 183.391L249.782 188.643C248.027 190.528 246.111 192.166 244.034 193.556C241.957 194.947 239.66 196.112 237.141 197.053ZM285.024 179.173C279.628 181.187 275.264 181.485 271.933 180.064C268.661 178.622 266.029 175.232 264.037 169.896L254.096 143.276L242.764 147.507L240.514 141.481L251.846 137.25L246.137 121.961L253.332 119.275L259.041 134.563L276.398 128.082L278.648 134.107L261.291 140.589L270.896 166.31C272.194 169.788 273.843 172.007 275.841 172.969C277.818 173.87 280.515 173.683 283.932 172.407C285.251 171.914 286.417 171.377 287.429 170.794C288.418 170.151 289.434 169.396 290.477 168.528L293.683 174.095C292.325 175.216 290.942 176.177 289.532 176.977C288.205 177.814 286.703 178.546 285.024 179.173ZM334.148 176.61C337.14 174.741 339.468 172.745 341.134 170.62C342.86 168.472 344.024 165.919 344.628 162.961C345.314 160.041 345.532 156.51 345.283 152.367L347.624 157.539L307.94 116.304L315.584 113.449L346.111 146.626L346.291 146.559L346.162 102.031L353.806 99.1764L352.53 152.838C352.403 157.804 351.816 162.088 350.77 165.689C349.784 169.268 348.233 172.341 346.117 174.907C344.083 177.511 341.342 179.867 337.894 181.975L334.148 176.61ZM398.527 136.789C393.91 138.513 389.493 139.035 385.277 138.355C381.121 137.652 377.431 135.819 374.206 132.856C371.042 129.87 368.542 125.919 366.706 121.003C364.848 116.027 364.146 111.404 364.601 107.135C365.094 102.783 366.68 98.9805 369.359 95.7257C372.098 92.4487 375.775 89.9481 380.392 88.2242C385.068 86.4779 389.455 85.9671 393.551 86.6919C397.708 87.3943 401.398 89.2272 404.622 92.1905C407.824 95.0938 410.354 99.0336 412.213 104.01C414.048 108.926 414.72 113.56 414.227 117.912C413.734 122.263 412.148 126.066 409.47 129.321C406.851 132.553 403.203 135.042 398.527 136.789ZM396.276 130.763C401.193 128.927 404.426 125.876 405.975 121.608C407.584 117.318 407.325 112.325 405.198 106.629C403.048 100.874 399.971 96.9331 395.967 94.8077C392 92.5999 387.558 92.414 382.642 94.2498C377.725 96.0857 374.463 99.1486 372.854 103.438C371.282 107.646 371.571 112.628 373.721 118.384C375.848 124.079 378.895 128.031 382.861 130.239C386.888 132.424 391.36 132.599 396.276 130.763ZM446.993 118.69C441.537 120.728 436.822 120.541 432.848 118.131C428.934 115.699 425.678 111.005 423.081 104.05L413.006 77.0702L420.111 74.4171L429.716 100.138C431.731 105.534 434.13 109.216 436.914 111.182C439.675 113.089 442.885 113.359 446.542 111.993C449.36 110.941 451.602 109.352 453.268 107.227C454.994 105.08 456.042 102.673 456.413 100.007C456.821 97.2584 456.488 94.4452 455.413 91.5673L445.473 64.9467L452.577 62.2937L470.041 109.06L463.206 111.612L460.53 104.72C459.671 107.91 458.091 110.721 455.788 113.152C453.462 115.523 450.531 117.37 446.993 118.69ZM485.131 103.424L467.668 56.6586L474.503 54.1063L478.254 63.8755L478.433 63.8084C478.984 61.0751 480.048 58.526 481.624 56.1611C483.178 53.7363 485.177 51.5893 487.622 49.72C490.044 47.7908 492.784 46.2553 495.841 45.1135L498.192 51.4089C494.235 52.8865 490.94 55.0392 488.307 57.867C485.674 60.6948 483.902 63.816 482.991 67.2304C482.139 70.6225 482.341 73.9973 483.594 77.3549L492.326 100.738L485.131 103.424Z" fill="white"/>
</g>
<g filter="url(#filter2_d_179_167)">
<path d="M162.553 389.133C160.038 382.4 163.458 374.904 170.19 372.389L434.822 273.553C441.555 271.038 449.051 274.458 451.566 281.19C454.08 287.923 450.661 295.419 443.928 297.934L179.296 396.77C172.564 399.285 165.068 395.865 162.553 389.133Z" fill="url(#paint0_linear_179_167)"/>
</g>
<defs>
<filter id="filter0_d_179_167" x="115.229" y="123.833" width="438.992" height="266.972" filterUnits="userSpaceOnUse" color-interpolation-filters="sRGB">
<feFlood flood-opacity="0" result="BackgroundImageFix"/>
<feColorMatrix in="SourceAlpha" type="matrix" values="0 0 0 0 0 0 0 0 0 0 0 0 0 0 0 0 0 0 127 0" result="hardAlpha"/>
<feOffset dy="4"/>
<feGaussianBlur stdDeviation="2"/>
<feComposite in2="hardAlpha" operator="out"/>
<feColorMatrix type="matrix" values="0 0 0 0 0 0 0 0 0 0 0 0 0 0 0 0 0 0 0.25 0"/>
<feBlend mode="normal" in2="BackgroundImageFix" result="effect1_dropShadow_179_167"/>
<feBlend mode="normal" in="SourceGraphic" in2="effect1_dropShadow_179_167" result="shape"/>
</filter>
<filter id="filter1_d_179_167" x="14.8497" y="27.1265" width="510.515" height="269.945" filterUnits="userSpaceOnUse" color-interpolation-filters="sRGB">
<feFlood flood-opacity="0" result="BackgroundImageFix"/>
<feColorMatrix in="SourceAlpha" type="matrix" values="0 0 0 0 0 0 0 0 0 0 0 0 0 0 0 0 0 0 127 0" result="hardAlpha"/>
<feOffset dy="4"/>
<feGaussianBlur stdDeviation="2"/>
<feComposite in2="hardAlpha" operator="out"/>
<feColorMatrix type="matrix" values="0 0 0 0 0 0 0 0 0 0 0 0 0 0 0 0 0 0 0.25 0"/>
<feBlend mode="normal" in2="BackgroundImageFix" result="effect1_dropShadow_179_167"/>
<feBlend mode="normal" in="SourceGraphic" in2="effect1_dropShadow_179_167" result="shape"/>
</filter>
<filter id="filter2_d_179_167" x="157.727" y="272.727" width="298.665" height="132.869" filterUnits="userSpaceOnUse" color-interpolation-filters="sRGB">
<feFlood flood-opacity="0" result="BackgroundImageFix"/>
<feColorMatrix in="SourceAlpha" type="matrix" values="0 0 0 0 0 0 0 0 0 0 0 0 0 0 0 0 0 0 127 0" result="hardAlpha"/>
<feOffset dy="4"/>
<feGaussianBlur stdDeviation="2"/>
<feComposite in2="hardAlpha" operator="out"/>
<feColorMatrix type="matrix" values="0 0 0 0 0 0 0 0 0 0 0 0 0 0 0 0 0 0 0.25 0"/>
<feBlend mode="normal" in2="BackgroundImageFix" result="effect1_dropShadow_179_167"/>
<feBlend mode="normal" in="SourceGraphic" in2="effect1_dropShadow_179_167" result="shape"/>
</filter>
<linearGradient id="paint0_linear_179_167" x1="162.553" y1="389.133" x2="451.566" y2="281.19" gradientUnits="userSpaceOnUse">
<stop stop-color="#6C2A88"/>
<stop offset="1" stop-color="#1E1B4B"/>
</linearGradient>
</defs>
</svg>
