<svg width="1412" height="816" viewBox="0 0 1412 816" fill="none" xmlns="http://www.w3.org/2000/svg">
<g filter="url(#filter0_d_155_168)">
<path d="M527.553 523.586L523.747 513.394L560.08 499.826C562.878 498.781 565.037 497.246 566.558 495.221C568.049 493.116 568.966 490.815 569.31 488.318C569.653 485.822 569.391 483.415 568.526 481.096C567.63 478.698 566.249 476.709 564.384 475.128C562.569 473.438 560.438 472.366 557.991 471.913C555.595 471.351 552.998 471.592 550.2 472.636L534.372 478.547C529.655 480.308 525.14 480.901 520.826 480.326C516.483 479.671 512.63 478.012 509.268 475.351C505.956 472.58 503.479 468.996 501.837 464.599C500.165 460.123 499.617 455.727 500.192 451.413C500.847 447.07 502.546 443.202 505.287 439.81C508.108 436.388 511.837 433.812 516.474 432.08L552.088 418.781L555.894 428.974L521.359 441.87C518.721 442.855 516.641 444.36 515.121 446.385C513.57 448.331 512.648 450.497 512.355 452.884C512.032 455.19 512.289 457.463 513.125 459.701C513.931 461.859 515.186 463.759 516.892 465.399C518.648 466.93 520.709 467.936 523.075 468.419C525.521 468.872 528.023 468.621 530.582 467.665L546.77 461.62C551.806 459.74 556.496 459.127 560.84 459.782C565.183 460.438 568.956 462.126 572.159 464.847C575.361 467.568 577.783 471.127 579.425 475.524C581.246 480.4 581.873 485.13 581.308 489.713C580.792 494.187 579.139 498.175 576.347 501.677C573.556 505.178 569.842 507.795 565.205 509.526L527.553 523.586ZM643.245 482.161C636.61 484.639 630.196 485.758 624.004 485.52C617.783 485.202 612.007 483.761 606.677 481.196C601.427 478.602 596.778 475.055 592.729 470.555C588.681 466.055 585.537 460.808 583.298 454.812C581.089 448.896 580.039 442.912 580.147 436.86C580.255 430.808 581.442 425.081 583.706 419.681C586.051 414.251 589.483 409.417 594.004 405.179C598.524 400.94 604.102 397.582 610.737 395.105C617.372 392.627 623.785 391.507 629.977 391.746C636.169 391.984 641.89 393.4 647.14 395.994C652.47 398.558 657.159 402.091 661.208 406.591C665.256 411.091 668.4 416.338 670.639 422.334C672.848 428.25 673.898 434.234 673.79 440.286C673.682 446.338 672.455 452.079 670.111 457.509C667.846 462.909 664.469 467.769 659.978 472.087C655.458 476.325 649.88 479.683 643.245 482.161ZM639.439 471.969C643.996 470.267 647.919 467.846 651.209 464.704C654.5 461.563 657.017 457.936 658.76 453.823C660.584 449.681 661.548 445.313 661.655 440.719C661.731 436.044 660.874 431.309 659.083 426.513C657.321 421.796 654.88 417.698 651.759 414.218C648.638 410.738 645.086 408.056 641.103 406.173C637.091 404.21 632.788 403.175 628.194 403.069C623.65 402.853 619.1 403.596 614.543 405.297C609.906 407.029 605.943 409.465 602.653 412.607C599.332 415.668 596.801 419.255 595.057 423.368C593.284 427.4 592.359 431.753 592.282 436.427C592.206 441.101 593.063 445.837 594.854 450.633C596.616 455.35 599.057 459.448 602.178 462.928C605.27 466.328 608.821 469.01 612.834 470.973C616.846 472.936 621.124 474.026 625.668 474.242C630.212 474.458 634.802 473.7 639.439 471.969ZM757.18 439.479C752.703 441.151 748.373 441.629 744.189 440.915C740.055 440.09 736.373 438.277 733.141 435.476C729.908 432.675 727.471 429.076 725.83 424.679L710.202 382.83C709.396 380.671 708.145 378.907 706.449 377.536C704.753 376.166 702.832 375.289 700.685 374.906C698.539 374.524 696.426 374.721 694.347 375.497C692.269 376.273 690.544 377.509 689.174 379.205C687.883 380.871 687.046 382.778 686.664 384.924C686.361 387.041 686.613 389.179 687.419 391.338L711.196 455.011L699.684 459.31L676.49 397.195C674.848 392.798 674.329 388.483 674.934 384.249C675.54 380.015 677.188 376.257 679.879 372.975C682.54 369.613 686.109 367.096 690.586 365.424C695.143 363.723 699.528 363.269 703.742 364.064C707.925 364.779 711.633 366.537 714.865 369.338C718.097 372.139 720.534 375.738 722.176 380.135L737.803 421.984C738.609 424.143 739.86 425.907 741.556 427.278C743.252 428.649 745.134 429.54 747.201 429.952C749.347 430.335 751.42 430.153 753.419 429.407C755.417 428.66 757.062 427.454 758.352 425.788C759.643 424.122 760.44 422.23 760.742 420.114C761.125 417.967 760.913 415.814 760.107 413.656L736.33 349.982L747.842 345.684L771.037 407.798C772.678 412.195 773.197 416.51 772.592 420.744C771.987 424.978 770.393 428.761 767.812 432.093C765.201 435.346 761.657 437.808 757.18 439.479ZM868.507 426.328C864.51 427.82 860.654 428.349 856.939 427.915C853.334 427.53 850.085 426.147 847.192 423.766C844.299 421.385 842.062 418.076 840.48 413.839C840.092 412.8 839.729 411.706 839.391 410.557C839.082 409.488 838.799 408.364 838.541 407.185C832.135 410.032 825.776 411.542 819.464 411.713C813.151 411.884 807.215 410.867 801.655 408.662C796.065 406.377 791.111 402.989 786.793 398.499C782.445 393.928 779.062 388.406 776.644 381.93C774.435 376.015 773.374 370.126 773.462 364.263C773.521 358.32 774.697 352.689 776.991 347.369C779.286 342.049 782.668 337.324 787.138 333.196C791.659 328.957 797.156 325.629 803.632 323.211C810.107 320.793 816.386 319.678 822.468 319.867C828.55 320.055 834.201 321.406 839.421 323.92C844.611 326.354 849.146 329.716 853.025 334.006C856.984 338.267 860.053 343.315 862.232 349.15L880.278 397.475C881.89 401.792 882.493 405.848 882.088 409.642C881.714 413.517 880.376 416.886 878.074 419.749C875.853 422.583 872.664 424.775 868.507 426.328ZM863.937 416.284C866.575 415.299 868.375 413.533 869.338 410.988C870.33 408.522 870.169 405.531 868.856 402.014L858.199 373.474C855.457 376.866 853.375 380.194 851.953 383.458C850.5 386.642 849.557 389.727 849.123 392.713C848.74 395.589 848.731 398.37 849.097 401.057C849.433 403.664 850.048 406.167 850.944 408.565C851.81 410.884 852.941 412.693 854.337 413.993C855.843 415.344 857.44 416.205 859.127 416.577C860.815 416.949 862.418 416.851 863.937 416.284ZM831.752 398.516C833.031 398.039 834.215 397.551 835.304 397.053C836.364 396.475 837.473 395.788 838.633 394.99C838.737 391.854 839.266 388.514 840.22 384.97C841.254 381.396 842.822 377.668 844.925 373.786C847.078 369.793 850.025 365.733 853.766 361.603L850.721 353.449C849.019 348.892 846.653 344.994 843.621 341.754C840.639 338.404 837.187 335.867 833.264 334.144C829.392 332.311 825.238 331.311 820.804 331.145C816.34 330.899 811.87 331.612 807.393 333.284C802.836 334.985 798.953 337.392 795.743 340.504C792.582 343.506 790.115 347.023 788.342 351.055C786.649 355.058 785.749 359.356 785.643 363.95C785.586 368.435 786.424 372.995 788.155 377.632C789.887 382.268 792.258 386.302 795.27 389.732C798.331 393.052 801.813 395.668 805.716 397.581C809.698 399.464 813.881 400.544 818.265 400.82C822.7 400.986 827.195 400.218 831.752 398.516Z" fill="#934AB3"/>
<path d="M892.167 359.697L867.37 296.951L878.522 292.786L900.921 356.428L892.167 359.697ZM905.932 383.386C903.854 384.163 901.896 384.165 900.059 383.393C898.273 382.512 896.992 381.032 896.215 378.953C895.409 376.795 895.407 374.837 896.209 373.081C897.06 371.214 898.525 369.893 900.604 369.117C902.762 368.311 904.734 368.349 906.521 369.23C908.358 370.002 909.679 371.467 910.485 373.625C911.261 375.703 911.223 377.676 910.372 379.542C909.57 381.299 908.09 382.58 905.932 383.386Z" fill="white"/>
</g>
<g filter="url(#filter1_d_155_168)">
<path d="M368.827 454.301C365.649 455.488 362.438 456.311 359.194 456.771C355.95 457.231 352.905 457.309 350.059 457.005L349.191 450.566C352.157 450.825 355.082 450.791 357.967 450.466C360.889 450.058 363.729 449.339 366.487 448.309C370.324 446.876 372.997 445.161 374.505 443.163C376.013 441.165 376.309 438.937 375.391 436.479C374.764 434.8 373.81 433.619 372.53 432.935C371.25 432.252 369.618 431.905 367.633 431.895C365.648 431.885 363.195 432.083 360.273 432.491C356.339 432.935 352.871 433.069 349.868 432.893C346.924 432.694 344.438 431.982 342.41 430.759C340.419 429.453 338.942 427.51 337.98 424.932C336.457 420.855 336.852 417.155 339.164 413.833C341.513 410.428 345.536 407.662 351.231 405.535C354.229 404.416 357.309 403.607 360.471 403.11C363.632 402.612 366.565 402.508 369.269 402.796L370.193 409.112C367.571 408.861 364.841 408.958 362.001 409.404C359.139 409.789 356.389 410.475 353.751 411.46C350.094 412.826 347.549 414.425 346.115 416.258C344.682 418.091 344.38 420.117 345.208 422.336C345.745 423.775 346.613 424.817 347.81 425.463C349.068 426.086 350.659 426.414 352.584 426.447C354.569 426.457 356.892 426.273 359.551 425.895C362.556 425.525 365.294 425.356 367.766 425.389C370.275 425.34 372.492 425.606 374.416 426.185C376.341 426.765 377.983 427.688 379.345 428.956C380.744 430.142 381.835 431.784 382.619 433.882C384.209 438.139 383.791 442.052 381.367 445.622C378.942 449.191 374.762 452.085 368.827 454.301ZM418.853 435.62C411.359 438.419 404.789 438.481 399.145 435.806C393.501 433.132 389.224 427.897 386.313 420.103C383.492 412.549 383.224 405.885 385.509 400.113C387.854 394.319 392.504 390.123 399.459 387.526C406.115 385.041 411.972 385.176 417.032 387.932C422.069 390.628 425.999 395.754 428.82 403.308C429.043 403.908 429.278 404.537 429.525 405.197C429.771 405.856 429.954 406.437 430.073 406.939L391.221 421.447L389.072 415.691L422.707 403.131L422.064 405.524C419.892 399.708 417.1 395.798 413.687 393.793C410.274 391.788 406.259 391.648 401.642 393.372C396.726 395.207 393.531 398.177 392.057 402.28C390.561 406.323 390.876 411.192 393.003 416.888L393.675 418.686C395.779 424.322 398.778 428.053 402.67 429.879C406.563 431.704 411.237 431.598 416.693 429.561C419.571 428.486 422.225 427.086 424.654 425.359C427.061 423.572 429.075 421.556 430.696 419.311L434.341 424.406C432.622 426.756 430.421 428.91 427.736 430.869C425.112 432.805 422.151 434.389 418.853 435.62ZM449.866 423.015L425.35 357.363L432.545 354.676L457.061 420.328L449.866 423.015ZM493.067 407.908C485.572 410.706 479.003 410.768 473.359 408.094C467.714 405.419 463.437 400.185 460.526 392.391C457.705 384.836 457.438 378.173 459.723 372.401C462.068 366.606 466.718 362.41 473.673 359.813C480.328 357.328 486.185 357.464 491.245 360.22C496.283 362.916 500.212 368.041 503.033 375.596C503.257 376.195 503.492 376.825 503.738 377.484C503.984 378.144 504.167 378.725 504.286 379.227L465.435 393.735L463.285 387.979L496.921 375.419L496.277 377.811C494.105 371.995 491.313 368.085 487.9 366.08C484.487 364.076 480.472 363.935 475.856 365.659C470.939 367.495 467.744 370.464 466.27 374.567C464.774 378.61 465.089 383.479 467.216 389.175L467.888 390.974C469.992 396.61 472.991 400.341 476.884 402.166C480.776 403.992 485.451 403.886 490.907 401.849C493.784 400.774 496.438 399.373 498.867 397.646C501.274 395.859 503.288 393.843 504.91 391.598L508.554 396.693C506.836 399.043 504.634 401.197 501.95 403.156C499.325 405.093 496.364 406.676 493.067 407.908ZM544.82 388.582C539.723 390.485 534.988 391.161 530.615 390.608C526.218 389.995 522.359 388.259 519.038 385.401C515.753 382.46 513.171 378.471 511.29 373.435C509.409 368.398 508.757 363.723 509.332 359.409C509.945 355.013 511.722 351.173 514.663 347.889C517.581 344.545 521.589 341.921 526.685 340.018C529.203 339.078 531.702 338.452 534.182 338.141C536.639 337.77 539.16 337.751 541.744 338.084L542.544 344.343C540.125 344.085 537.837 344.086 535.679 344.345C533.521 344.604 531.423 345.114 529.385 345.876C523.809 347.958 520.066 351.2 518.158 355.602C516.226 359.943 516.336 364.992 518.485 370.748C520.612 376.444 523.839 380.329 528.165 382.402C532.492 384.475 537.443 384.471 543.019 382.389C545.058 381.628 546.977 380.638 548.776 379.419C550.576 378.201 552.304 376.701 553.962 374.921L557.461 380.173C555.705 382.058 553.789 383.696 551.712 385.086C549.635 386.477 547.338 387.642 544.82 388.582ZM592.702 370.702C587.306 372.717 582.942 373.015 579.611 371.594C576.339 370.152 573.707 366.762 571.715 361.426L561.774 334.805L550.443 339.037L548.193 333.011L559.524 328.78L553.815 313.491L561.01 310.804L566.719 326.093L584.076 319.612L586.326 325.637L568.969 332.119L578.574 357.84C579.872 361.318 581.521 363.537 583.52 364.499C585.496 365.4 588.193 365.213 591.61 363.937C592.929 363.444 594.095 362.907 595.107 362.324C596.097 361.681 597.113 360.926 598.155 360.058L601.361 365.625C600.003 366.746 598.62 367.707 597.211 368.506C595.884 369.344 594.381 370.076 592.702 370.702ZM641.826 368.14C644.818 366.271 647.146 364.274 648.812 362.149C650.538 360.002 651.703 357.449 652.306 354.491C652.992 351.571 653.21 348.039 652.961 343.897L655.302 349.068L615.618 307.834L623.262 304.979L653.789 338.156L653.969 338.089L653.84 293.561L661.485 290.706L660.208 344.367C660.081 349.334 659.494 353.617 658.448 357.219C657.462 360.798 655.911 363.871 653.795 366.437C651.761 369.041 649.02 371.397 645.572 373.504L641.826 368.14ZM706.205 328.319C701.588 330.043 697.172 330.565 692.955 329.884C688.799 329.182 685.109 327.349 681.884 324.386C678.72 321.4 676.22 317.449 674.384 312.533C672.526 307.556 671.824 302.934 672.28 298.665C672.773 294.313 674.358 290.51 677.037 287.256C679.776 283.979 683.453 281.478 688.07 279.754C692.747 278.008 697.133 277.497 701.229 278.222C705.386 278.924 709.076 280.757 712.3 283.72C715.502 286.624 718.032 290.564 719.891 295.54C721.727 300.456 722.398 305.09 721.905 309.442C721.412 313.793 719.826 317.596 717.148 320.851C714.529 324.083 710.881 326.572 706.205 328.319ZM703.955 322.293C708.871 320.457 712.104 317.405 713.653 313.138C715.262 308.848 715.003 303.855 712.876 298.159C710.727 292.404 707.65 288.463 703.645 286.338C699.678 284.13 695.236 283.944 690.32 285.78C685.404 287.616 682.141 290.678 680.532 294.968C678.961 299.176 679.25 304.158 681.399 309.913C683.526 315.609 686.573 319.561 690.54 321.769C694.567 323.954 699.038 324.129 703.955 322.293ZM754.672 310.22C749.216 312.258 744.501 312.071 740.526 309.661C736.612 307.229 733.356 302.535 730.759 295.58L720.684 268.6L727.789 265.947L737.394 291.668C739.409 297.064 741.808 300.746 744.592 302.712C747.354 304.618 750.563 304.889 754.22 303.523C757.038 302.471 759.28 300.882 760.946 298.757C762.672 296.61 763.72 294.203 764.091 291.537C764.499 288.788 764.166 285.975 763.091 283.097L753.151 256.477L760.256 253.824L777.719 300.589L770.884 303.142L768.208 296.25C767.35 299.44 765.769 302.251 763.466 304.682C761.14 307.053 758.209 308.899 754.672 310.22ZM792.809 294.954L775.346 248.188L782.181 245.636L785.932 255.405L786.112 255.338C786.662 252.605 787.726 250.056 789.302 247.691C790.856 245.266 792.855 243.119 795.3 241.25C797.722 239.321 800.462 237.785 803.52 236.643L805.87 242.939C801.913 244.416 798.618 246.569 795.985 249.397C793.352 252.225 791.58 255.346 790.669 258.76C789.818 262.152 790.019 265.527 791.273 268.885L800.004 292.268L792.809 294.954Z" fill="white"/>
</g>
<defs>
<filter id="filter0_d_155_168" x="487.628" y="292.205" width="438.992" height="266.972" filterUnits="userSpaceOnUse" color-interpolation-filters="sRGB">
<feFlood flood-opacity="0" result="BackgroundImageFix"/>
<feColorMatrix in="SourceAlpha" type="matrix" values="0 0 0 0 0 0 0 0 0 0 0 0 0 0 0 0 0 0 127 0" result="hardAlpha"/>
<feOffset dy="4"/>
<feGaussianBlur stdDeviation="2"/>
<feComposite in2="hardAlpha" operator="out"/>
<feColorMatrix type="matrix" values="0 0 0 0 0 0 0 0 0 0 0 0 0 0 0 0 0 0 0.25 0"/>
<feBlend mode="normal" in2="BackgroundImageFix" result="effect1_dropShadow_155_168"/>
<feBlend mode="normal" in="SourceGraphic" in2="effect1_dropShadow_155_168" result="shape"/>
</filter>
<filter id="filter1_d_155_168" x="322.528" y="218.656" width="510.515" height="269.945" filterUnits="userSpaceOnUse" color-interpolation-filters="sRGB">
<feFlood flood-opacity="0" result="BackgroundImageFix"/>
<feColorMatrix in="SourceAlpha" type="matrix" values="0 0 0 0 0 0 0 0 0 0 0 0 0 0 0 0 0 0 127 0" result="hardAlpha"/>
<feOffset dy="4"/>
<feGaussianBlur stdDeviation="2"/>
<feComposite in2="hardAlpha" operator="out"/>
<feColorMatrix type="matrix" values="0 0 0 0 0 0 0 0 0 0 0 0 0 0 0 0 0 0 0.25 0"/>
<feBlend mode="normal" in2="BackgroundImageFix" result="effect1_dropShadow_155_168"/>
<feBlend mode="normal" in="SourceGraphic" in2="effect1_dropShadow_155_168" result="shape"/>
</filter>
</defs>
</svg>
